<?xml version="1.0" encoding="UTF-8" standalone="no"?>
<!-- Created with Inkscape (http://www.inkscape.org/) -->

<svg
   version="1.1"
   id="svg1"
   width="1181.8782"
   height="383.94604"
   viewBox="0 0 1181.8781 383.94604"
   sodipodi:docname="candidate-logo.svg"
   inkscape:version="1.4 (e7c3feb1, 2024-10-09)"
   xmlns:inkscape="http://www.inkscape.org/namespaces/inkscape"
   xmlns:sodipodi="http://sodipodi.sourceforge.net/DTD/sodipodi-0.dtd"
   xmlns="http://www.w3.org/2000/svg"
   xmlns:svg="http://www.w3.org/2000/svg">
  <defs
     id="defs1" />
  <sodipodi:namedview
     id="namedview1"
     pagecolor="#ffffff"
     bordercolor="#000000"
     borderopacity="0.25"
     inkscape:showpageshadow="2"
     inkscape:pageopacity="0.0"
     inkscape:pagecheckerboard="0"
     inkscape:deskcolor="#d1d1d1"
     inkscape:zoom="0.43882451"
     inkscape:cx="515.01225"
     inkscape:cy="385.11978"
     inkscape:window-width="1680"
     inkscape:window-height="997"
     inkscape:window-x="0"
     inkscape:window-y="25"
     inkscape:window-maximized="0"
     inkscape:current-layer="g1" />
  <g
     inkscape:groupmode="layer"
     inkscape:label="Image"
     id="g1"
     transform="translate(-84.110576,-470.86076)">
    <g
       id="g2"
       transform="translate(-18.230527,15.95171)">
      <path
         style="fill:#fdfaf4"
         d="m 763.8919,837.45788 c 0.83243,-0.21753 2.19459,-0.21753 3.02702,0 0.83244,0.21754 0.15135,0.39553 -1.51351,0.39553 -1.66487,0 -2.34595,-0.17799 -1.51351,-0.39553 z m 198.05405,0 c 0.83243,-0.21753 2.1946,-0.21753 3.02703,0 0.83243,0.21754 0.15135,0.39553 -1.51352,0.39553 -1.66486,0 -2.34594,-0.17799 -1.51351,-0.39553 z m 234.82085,-0.0155 c 1.0759,-0.20687 2.6326,-0.19901 3.4595,0.0175 0.8269,0.21647 -0.053,0.38572 -1.956,0.37612 -1.9027,-0.01 -2.5793,-0.18671 -1.5035,-0.39358 z m -885.94428,-11.064 c 0.002,-6.18378 0.13927,-8.60003 0.30613,-5.36944 0.16686,3.2306 0.16562,8.29006 -0.003,11.24325 -0.16837,2.95319 -0.30489,0.30998 -0.30338,-5.87381 z m 170.43169,-19.02703 c 3e-4,-16.64864 0.11649,-23.33705 0.25821,-14.86313 0.14173,8.47393 0.14148,22.09555 -5.3e-4,30.27027 -0.14202,8.17473 -0.25797,1.24151 -0.25768,-15.40714 z m 54.43593,18.5946 c 0,-6.42162 0.13615,-9.04865 0.30255,-5.83784 0.16641,3.21081 0.16641,8.46487 0,11.67568 -0.1664,3.21081 -0.30255,0.58378 -0.30255,-5.83784 z m 51.07759,-18.5946 c 2.9e-4,-16.64864 0.11649,-23.33705 0.25821,-14.86313 0.14172,8.47393 0.14148,22.09555 -5.4e-4,30.27027 -0.14202,8.17473 -0.25797,1.24151 -0.25767,-15.40714 z m 200.64865,0 c 2.9e-4,-16.64864 0.11649,-23.33705 0.25821,-14.86313 0.14172,8.47393 0.14148,22.09555 -5.4e-4,30.27027 -0.14202,8.17473 -0.25797,1.24151 -0.25767,-15.40714 z m 363.60842,28.32433 c -1.0758,-1.37172 -1.0452,-1.40232 0.3266,-0.32654 0.8324,0.65284 1.5135,1.33392 1.5135,1.51352 0,0.71181 -0.7102,0.25367 -1.8401,-1.18698 z m 94.77,-28.32433 c 3e-4,-16.64864 0.1164,-23.33705 0.2582,-14.86313 0.1417,8.47393 0.1414,22.09555 -6e-4,30.27027 -0.142,8.17473 -0.2579,1.24151 -0.2576,-15.40714 z m -610.63373,24.43244 -1.64755,-1.94595 1.94594,1.64756 c 1.82871,1.54829 2.33967,2.24433 1.64756,2.24433 -0.16411,0 -1.03979,-0.87567 -1.94595,-1.94594 z m 28.56831,-2.5946 -2.54019,-2.81081 2.81081,2.54019 c 2.62007,2.36781 3.20835,3.08143 2.54019,3.08143 -0.14884,0 -1.41371,-1.26486 -2.81081,-2.81081 z m 429.45982,2.48428 c 0,-0.17959 0.6811,-0.86068 1.5135,-1.51351 1.3717,-1.07578 1.4023,-1.04519 0.3265,0.32653 -1.1298,1.44065 -1.84,1.89879 -1.84,1.18698 z m -350.33574,-2.91671 -2.0967,-2.37838 2.37838,2.09671 c 1.30811,1.15318 2.37838,2.22345 2.37838,2.37837 0,0.6783 -0.70037,0.12625 -2.66006,-2.0967 z m 401.25244,-0.86486 c -1.0758,-1.37173 -1.0452,-1.40232 0.3265,-0.32654 0.8325,0.65284 1.5136,1.33392 1.5136,1.51351 0,0.71182 -0.7103,0.25367 -1.8401,-1.18697 z m -783.17345,-8.43244 c 0.004,-3.32973 0.16016,-4.58591 0.34738,-2.79152 0.18722,1.7944 0.18408,4.51872 -0.007,6.05406 -0.19106,1.53533 -0.34424,0.0672 -0.3404,-3.26254 z m 266.84913,4.10811 c -1.07578,-1.37172 -1.04519,-1.40231 0.32653,-0.32653 0.83243,0.65283 1.51351,1.33392 1.51351,1.51351 0,0.71181 -0.71021,0.25367 -1.84004,-1.18698 z M 688.75595,816 c 0.002,-5.23243 0.1444,-7.26146 0.31655,-4.50896 0.17215,2.7525 0.17056,7.03359 -0.004,9.51351 -0.17411,2.47993 -0.31496,0.22789 -0.31301,-5.00455 z m 262.0808,3.67568 -1.64756,-1.94595 1.94595,1.64756 c 1.82871,1.5483 2.33967,2.24433 1.64756,2.24433 -0.16412,0 -1.03979,-0.87567 -1.94595,-1.94594 z m 185.48535,-0.43243 c -1.0758,-1.37173 -1.0452,-1.40232 0.3266,-0.32654 0.8324,0.65284 1.5135,1.33392 1.5135,1.51352 0,0.71181 -0.7102,0.25366 -1.8401,-1.18698 z m -67.842,-21.83784 c 0,-11.17838 0.1232,-15.75135 0.2739,-10.16216 0.1506,5.58919 0.1506,14.73513 0,20.32432 -0.1507,5.58919 -0.2739,1.01622 -0.2739,-10.16216 z m -448.48231,17.51351 c -1.07578,-1.37172 -1.04519,-1.40231 0.32654,-0.32653 0.83243,0.65284 1.51351,1.33392 1.51351,1.51351 0,0.71181 -0.71021,0.25367 -1.84005,-1.18698 z m 508.54051,-4.32432 c -1.0757,-1.37173 -1.0452,-1.40232 0.3266,-0.32654 0.8324,0.65284 1.5135,1.33392 1.5135,1.51352 0,0.71181 -0.7102,0.25366 -1.8401,-1.18698 z m -915.71326,-1.58559 c 0.0415,-1.00752 0.24643,-1.21245 0.52252,-0.52252 0.24983,0.62432 0.21911,1.37027 -0.0683,1.65766 -0.28739,0.28738 -0.4918,-0.22343 -0.45424,-1.13514 z m 954.96066,-1.65766 c 0.01,-1.9027 0.1867,-2.57924 0.3936,-1.50343 0.2068,1.07582 0.199,2.63258 -0.017,3.45946 -0.2165,0.82689 -0.3857,-0.0533 -0.3761,-1.95603 z m -554.70683,-0.21621 c -1.07578,-1.37173 -1.04519,-1.40232 0.32654,-0.32654 0.83243,0.65284 1.51351,1.33392 1.51351,1.51352 0,0.71181 -0.71021,0.25367 -1.84005,-1.18698 z m 16.43244,0 c -1.07578,-1.37173 -1.04519,-1.40232 0.32653,-0.32654 0.83243,0.65284 1.51351,1.33392 1.51351,1.51352 0,0.71181 -0.71021,0.25367 -1.84004,-1.18698 z m -416.68627,-1.58559 c 0.0415,-1.00752 0.24643,-1.21245 0.52252,-0.52252 0.24983,0.62432 0.21911,1.37027 -0.0683,1.65766 -0.28739,0.28739 -0.4918,-0.22343 -0.45424,-1.13514 z m 322.90201,-9.44144 0.0567,-6.05405 5.62162,-0.0592 5.62162,-0.0591 -5.3683,0.31403 -5.36829,0.31403 -0.31006,5.79917 -0.31006,5.79917 z m 88.59507,4.97297 c -1.07578,-1.37172 -1.04519,-1.40231 0.32653,-0.32653 0.83243,0.65284 1.51352,1.33392 1.51352,1.51351 0,0.71182 -0.71022,0.25367 -1.84005,-1.18698 z m -263.30277,-5.83783 0.0617,-5.18919 8.86673,-0.0478 8.86672,-0.0478 -8.61001,0.29379 -8.61001,0.29379 -0.31845,4.94316 -0.31845,4.94317 z m -50.19408,-6.48649 c 0,-6.42162 0.13615,-9.04865 0.30256,-5.83784 0.1664,3.21081 0.1664,8.46487 0,11.67568 -0.16641,3.21081 -0.30256,0.58378 -0.30256,-5.83784 z m -140.87932,5.18919 c 0.86096,-0.95135 1.75998,-1.72973 1.99781,-1.72973 0.23784,0 -0.27199,0.77838 -1.13295,1.72973 -0.86096,0.95135 -1.75998,1.72973 -1.99781,1.72973 -0.23784,0 0.27199,-0.77838 1.13295,-1.72973 z m 1016.21625,0 c 0.8609,-0.95135 1.7599,-1.72973 1.9978,-1.72973 0.2378,0 -0.272,0.77838 -1.133,1.72973 -0.8609,0.95135 -1.7599,1.72973 -1.9978,1.72973 -0.2378,0 0.272,-0.77838 1.133,-1.72973 z m -936.32657,-2.37838 c -1.07578,-1.37172 -1.04519,-1.40231 0.32653,-0.32653 0.83244,0.65283 1.51352,1.33392 1.51352,1.51351 0,0.71181 -0.71022,0.25367 -1.84005,-1.18698 z m -119.45725,-1.7187 c 2.4973,-0.1747 6.58378,-0.1747 9.08108,0 2.4973,0.17471 0.45405,0.31765 -4.54054,0.31765 -4.9946,0 -7.03784,-0.14294 -4.54054,-0.31765 z m 108.08882,0.0134 c 1.53533,-0.19106 4.25966,-0.1942 6.05405,-0.007 1.79439,0.18722 0.53821,0.34355 -2.79152,0.34738 -3.32973,0.004 -4.79787,-0.14934 -3.26253,-0.3404 z m 150.9643,-0.0126 c 2.27382,-0.17874 5.77652,-0.17659 7.78379,0.005 2.00727,0.18138 0.14687,0.32763 -4.13421,0.32499 -4.28108,-0.003 -5.92339,-0.15104 -3.64958,-0.32979 z m 30.20696,0.0118 7.53034,-0.30611 0.3189,-6.23714 0.3189,-6.23715 -0.0655,6.48649 -0.0655,6.48649 -7.78379,0.0568 -7.78378,0.0568 z m 15.17235,-0.008 c 2.02162,-0.18208 5.32973,-0.18208 7.35135,0 2.02163,0.18209 0.36757,0.33106 -3.67567,0.33106 -4.04324,0 -5.6973,-0.14897 -3.67568,-0.33106 z m 26.81081,0 c 2.02163,-0.18208 5.32973,-0.18208 7.35136,0 2.02162,0.18209 0.36756,0.33106 -3.67568,0.33106 -4.04324,0 -5.6973,-0.14897 -3.67568,-0.33106 z m 36.32433,-0.004 c 2.4973,-0.1747 6.58378,-0.1747 9.08108,0 2.4973,0.17471 0.45405,0.31765 -4.54054,0.31765 -4.9946,0 -7.03784,-0.14294 -4.54054,-0.31765 z m 313.94595,0.004 c 2.02162,-0.18208 5.32973,-0.18208 7.35135,0 2.02162,0.18209 0.36756,0.33106 -3.67568,0.33106 -4.04324,0 -5.6973,-0.14897 -3.67567,-0.33106 z m 26.81081,0 c 2.02162,-0.18208 5.32973,-0.18208 7.35135,0 2.02162,0.18209 0.36757,0.33106 -3.67568,0.33106 -4.04324,0 -5.69729,-0.14897 -3.67567,-0.33106 z M 1118.16,779.45946 c -1.0758,-1.37172 -1.0452,-1.40231 0.3265,-0.32653 0.8324,0.65284 1.5135,1.33392 1.5135,1.51351 0,0.71182 -0.7102,0.25367 -1.84,-1.18698 z m -516.64648,-2.81081 -2.5946,-0.66021 2.32734,-0.10233 c 1.28003,-0.0563 2.56787,0.28687 2.86185,0.76254 0.29398,0.47568 0.41425,0.81882 0.26726,0.76254 -0.14699,-0.0563 -1.43483,-0.39942 -2.86185,-0.76254 z m 86.7027,0.29208 c 0.59459,-0.23992 1.56757,-0.23992 2.16216,0 0.5946,0.23993 0.10811,0.43623 -1.08108,0.43623 -1.18919,0 -1.67568,-0.1963 -1.08108,-0.43623 z m 424.64868,-0.86486 c 0.5946,-0.23993 1.5675,-0.23993 2.1621,0 0.5946,0.23992 0.1081,0.43622 -1.081,0.43622 -1.1892,0 -1.6757,-0.1963 -1.0811,-0.43622 z M 102.39734,724.11672 c 0.29422,-0.83717 24.95356,-61.75137 54.79853,-135.3649 l 54.26359,-133.84277 11.08755,0.22115 11.08754,0.22115 54.8509,134.91892 c 30.16799,74.20541 54.85427,135.02007 54.8584,135.14369 0.004,0.12362 -18.14736,0.12362 -40.33665,0 l -40.34415,-0.22477 -4.48584,-12.10811 -4.48583,-12.1081 h -31.05257 -31.05257 l -4.44899,12.1081 -4.44899,12.10811 -40.41294,0.22483 c -38.25631,0.21283 -40.38439,0.1436 -39.87798,-1.2973 z m 76.18221,-23.14374 4.48553,-12.10811 39.41556,-0.22489 39.41557,-0.22489 2.21048,5.84651 c 1.21576,3.21558 3.31365,8.76543 4.66196,12.333 l 2.45149,6.48648 27.08184,0.22868 c 24.40621,0.20608 27.02993,0.0934 26.5565,-1.14033 -0.28893,-0.75295 -22.8084,-56.23278 -50.04326,-123.28851 l -49.51792,-121.91951 -2.87531,0.24903 -2.8753,0.24902 -49.66524,122.32724 c -27.31588,67.27998 -49.66523,122.64769 -49.66523,123.03935 0,0.39166 12.1225,0.60927 26.9389,0.48357 l 26.9389,-0.22854 z m 22.93396,-59.16954 c 0,-0.43514 4.32599,-12.79189 9.6133,-27.45946 5.28731,-14.66757 10.05742,-27.92469 10.60025,-29.46027 0.95447,-2.70009 1.18099,-2.2305 6.88359,14.27027 3.24315,9.38423 7.98195,22.99737 10.53065,30.25143 l 4.63401,13.18919 h -21.1309 c -12.19826,0 -21.1309,-0.33445 -21.1309,-0.79116 z m 25.06673,-11.10073 c -0.008,-0.35676 -0.94663,-3.17838 -2.08609,-6.27028 -1.25636,-3.40911 -2.26619,-5.11104 -2.56582,-4.32432 -1.70267,4.4706 -3.11752,9.03381 -3.11752,10.05468 0,0.83209 1.16726,1.18856 3.89189,1.18856 2.14054,0 3.88544,-0.29189 3.87754,-0.64864 z M 345.94595,594.55146 V 463.48129 l 60.75675,0.2894 c 59.25465,0.28224 60.92212,0.3358 67.44504,2.16623 16.00163,4.49029 27.08736,11.04607 37.67655,22.28078 8.32057,8.8278 13.96948,18.30881 17.82596,29.91872 4.00355,12.05262 5.17875,20.95803 4.59952,34.85403 -0.75886,18.20561 -6.27117,33.63321 -17.19882,48.1353 -5.16293,6.85171 -15.09273,15.7197 -20.91693,18.68022 -1.50074,0.76284 -2.82386,1.46517 -2.94027,1.56072 -0.29096,0.23884 55.05306,98.43109 56.0557,99.45493 0.49631,0.50681 0.80461,-48.7869 0.80461,-128.64864 V 462.7027 l 53.4054,0.0223 c 55.38182,0.0231 66.28194,0.50831 76.90677,3.42319 25.71666,7.05527 45.54434,27.71725 52.71475,54.93287 1.97337,7.49 2.29185,10.50249 2.3773,22.48649 0.063,8.83025 -0.32379,15.71568 -1.06874,19.02703 -2.44788,10.88082 -6.58595,20.84435 -11.53081,27.7635 l -2.53511,3.54729 4.59495,6.41092 c 9.96752,13.90679 14.20363,28.37595 13.39054,45.73775 -0.75464,16.11393 -5.06075,29.28654 -13.99479,42.81081 -10.96196,16.5941 -27.88369,28.8214 -47.55756,34.36414 l -6.91892,1.94927 -100.37081,0.24242 -100.37082,0.24243 -23.89179,-45.20994 c -14.06021,-26.60584 -24.45104,-45.32501 -25.25081,-45.48958 -1.22175,-0.25138 -1.35901,4.31273 -1.35901,45.18919 v 45.46882 h -36.32433 -36.32432 z m 60.33204,73.34043 0.22393,-45.18918 11.01931,0.007 11.01931,0.007 23.85587,45.18192 23.85586,45.18192 27.05226,0.22868 c 25.07215,0.21193 27.0113,0.12194 26.49272,-1.22947 -0.30775,-0.80198 -12.611,-22.83491 -27.34056,-48.96206 -14.72956,-26.12715 -26.78101,-47.66038 -26.78101,-47.85161 0,-0.19124 0.54422,-0.3477 1.20938,-0.3477 0.66516,0 4.84895,-1.8188 9.2973,-4.04177 6.71114,-3.35375 9.42085,-5.37807 15.91826,-11.89189 6.56407,-6.58065 8.48517,-9.1788 11.87964,-16.06634 9.49381,-19.26343 10.86922,-40.18712 3.99953,-60.84376 -7.11222,-21.38589 -23.51388,-37.43245 -44.89871,-43.92662 -6.40392,-1.94476 -7.1773,-1.97357 -60.75675,-2.26347 l -54.27027,-0.29363 v 118.97472 118.97472 l 24,-0.2299 24,-0.2299 z m 0.2085,-118.3425 v -26.45061 l 23.56757,0.30946 c 26.29744,0.34531 27.63823,0.60359 33.67628,6.48705 5.23607,5.10202 7.16753,10.52567 7.17889,20.15877 0.0113,9.56184 -1.82549,14.43838 -7.51966,19.96439 C 457.70547,575.53467 455.04973,576 429.25134,576 h -22.76485 z m 46.73717,13.02738 c 7.72805,-3.99633 8.07015,-19.48355 0.55226,-25.00178 -2.22548,-1.63352 -3.8814,-1.81737 -18.81081,-2.08843 l -16.37051,-0.29723 v 14.35128 14.35128 h 16.04295 c 12.66547,0 16.57835,-0.27686 18.58611,-1.31512 z m 216.86075,149.56106 c 21.41702,-4.42381 39.35876,-18.5986 48.99557,-38.70875 5.57558,-11.63514 6.94983,-17.86468 6.89758,-31.26692 -0.0381,-9.77095 -0.34413,-12.15165 -2.33713,-18.18039 -1.26131,-3.81544 -3.76397,-9.36223 -5.56146,-12.32621 -3.22951,-5.32533 -11.30525,-14.27922 -14.34706,-15.90715 -1.39184,-0.74489 -0.90355,-1.54139 4.32247,-7.05084 6.63853,-6.99856 10.56378,-14.17201 13.4116,-24.50993 2.66739,-9.68292 2.66648,-27.83573 -0.002,-38.61043 -5.36087,-21.64651 -18.16639,-37.06594 -37.35595,-44.98118 -12.49614,-5.15437 -12.30072,-5.13873 -69.4054,-5.5529 l -52.54055,-0.38106 v 119.42572 119.42573 h 50.63106 c 42.91969,0 51.64543,-0.20953 57.29119,-1.37569 z M 610.5946,641.6575 v -23.42359 l 23.56757,0.30947 c 20.15767,0.26469 24.06136,0.52928 26.98047,1.82872 8.89657,3.96031 13.44669,10.27229 14.11243,19.57693 0.75684,10.57778 -3.47879,18.60959 -12.07217,22.89185 l -4.49549,2.2402 H 634.641 610.5946 Z m 45.38595,11.01054 c 7.00634,-2.11181 9.94591,-12.06959 5.22071,-17.68516 -3.06404,-3.6414 -7.66164,-4.49639 -24.17883,-4.49639 h -14.31972 v 11.67567 11.67568 l 14.91891,-0.0665 c 8.90703,-0.0397 16.30515,-0.48429 18.35893,-1.10333 z M 610.5946,547.09926 v -23.85601 l 22.7027,0.038 c 24.43574,0.0409 26.56449,0.34937 32.23058,4.67111 9.52325,7.26374 10.78718,25.87672 2.38846,35.1731 -6.34922,7.02782 -7.1278,7.20162 -33.75417,7.53488 l -23.56757,0.29498 z m 45.76416,10.34425 c 6.69318,-3.46118 6.98739,-18.11686 0.42373,-21.10746 -1.36667,-0.6227 -8.02818,-0.9847 -18.12048,-0.9847 h -15.9593 v 11.67568 11.67567 h 15.61051 c 11.97455,0 16.17768,-0.29329 18.04554,-1.25919 z M 755.8919,594.5946 V 463.56757 h 72.21621 72.21622 v 35.89189 35.89189 h -35.89189 -35.8919 v 11.67568 11.67567 h 31.13514 31.13514 v 35.8919 35.89189 h -31.13514 -31.13514 v 11.67567 11.67568 h 37.62163 37.62162 v 35.89189 35.89189 H 829.83784 755.8919 Z m 135.78378,94.7027 v -24.21622 h -37.62162 -37.62162 v -23.35135 -23.35135 h 31.13513 31.13514 V 594.5946 570.81081 h -31.13514 -31.13513 v -23.78378 -23.78378 h 35.45946 35.45946 V 499.45946 475.67568 H 827.67568 768 V 594.5946 713.51352 h 61.83784 61.83784 z m 32,-94.74584 V 463.48129 l 60.75676,0.2894 c 59.25466,0.28224 60.92216,0.3358 67.44506,2.16623 16.0016,4.49029 27.0873,11.04607 37.6765,22.28078 15.861,16.82792 23.4979,38.72604 22.4276,64.30981 -0.9208,22.01284 -9.3067,41.83942 -23.6913,56.01316 -4.7317,4.66239 -14.0988,11.70179 -16.7446,12.58374 -0.5083,0.16943 12.287,23.75062 28.4339,52.40263 l 29.358,52.09458 h -41.2972 -41.2972 l -23.845,-45.18918 c -14.1218,-26.76245 -24.40146,-45.30322 -25.20949,-45.46883 -1.22884,-0.25185 -1.36438,4.23722 -1.36438,45.18919 v 45.46882 H 960 923.67568 Z m 60.33204,73.34043 0.22393,-45.18918 11.01931,0.0148 11.01934,0.0148 23.8449,45.17442 23.8449,45.17442 27.0632,0.22868 c 24.4946,0.20697 27.0129,0.0975 26.533,-1.15317 -0.2917,-0.76001 -12.5949,-22.79144 -27.3406,-48.95873 -14.7457,-26.1673 -26.8103,-47.73486 -26.8103,-47.92792 0,-0.19306 0.5442,-0.35102 1.2094,-0.35102 0.6652,0 4.8489,-1.8188 9.2973,-4.04177 6.7111,-3.35375 9.4208,-5.37807 15.9183,-11.89189 6.564,-6.58065 8.4851,-9.1788 11.8796,-16.06634 6.3018,-12.78677 7.815,-19.56866 7.815,-35.02703 0,-15.71963 -1.5089,-22.3283 -8.1946,-35.89189 -3.9053,-7.92282 -5.4787,-10.07387 -12.3357,-16.86486 -8.7492,-8.66486 -16.8415,-13.54212 -28.1839,-16.9866 -6.4039,-1.94476 -7.1773,-1.97357 -60.75674,-2.26347 l -54.27027,-0.29363 v 118.97472 118.97472 l 24,-0.2299 24,-0.2299 z m 0.2085,-118.3425 v -26.45061 l 23.56758,0.30946 c 26.2974,0.34531 27.6382,0.60359 33.6763,6.48705 5.2794,5.14425 7.1886,10.53123 7.1445,20.15877 -0.044,9.58904 -1.7604,14.14148 -7.4938,19.87494 -5.5305,5.53041 -8.6083,6.071 -34.5651,6.071 h -22.32948 z m 46.73718,13.02738 c 7.728,-3.99633 8.0701,-19.48355 0.5523,-25.00178 -2.2255,-1.63352 -3.8814,-1.81737 -18.8109,-2.08843 l -16.37047,-0.29723 v 14.35128 14.35128 h 16.04297 c 12.6655,0 16.5783,-0.27686 18.5861,-1.31512 z m 163.8159,115.47729 c 0,-17.36217 0.1154,-24.46487 0.2565,-15.78379 0.141,8.68108 0.141,22.88649 0,31.56757 -0.1411,8.68108 -0.2565,1.57838 -0.2565,-15.78378 z m -69.6904,-41.2973 c -1.0758,-1.37172 -1.0452,-1.40232 0.3265,-0.32654 0.8324,0.65284 1.5135,1.33392 1.5135,1.51352 0,0.71181 -0.7102,0.25367 -1.84,-1.18698 z m 148.0022,1.18698 c 0,-0.1796 0.6811,-0.86068 1.5135,-1.51352 1.3717,-1.07578 1.4023,-1.04518 0.3265,0.32654 -1.1298,1.44065 -1.84,1.89879 -1.84,1.18698 z m 2.4843,-47.88968 c -1.0758,-1.37173 -1.0452,-1.40232 0.3265,-0.32654 0.8324,0.65284 1.5135,1.33392 1.5135,1.51352 0,0.71181 -0.7102,0.25366 -1.84,-1.18698 z M 1174.5548,572.9009 c 0.042,-1.00752 0.2464,-1.21245 0.5225,-0.52252 0.2498,0.62432 0.2191,1.37027 -0.068,1.65766 -0.2874,0.28739 -0.4918,-0.22343 -0.4542,-1.13514 z m 78.5878,-34.73874 -2.9804,-3.24324 3.2432,2.98047 c 1.7838,1.63926 3.2433,3.09872 3.2433,3.24324 0,0.66043 -0.7319,0.0383 -3.5061,-2.98047 z m -54.6561,-49.22143 c 0.5946,-0.23992 1.5676,-0.23992 2.1622,0 0.5945,0.23993 0.1081,0.43623 -1.0811,0.43623 -1.1892,0 -1.6757,-0.1963 -1.0811,-0.43623 z"
         id="path8" />
      <path
         style="fill:#b9d3c6"
         d="m 683.90198,837.44237 c 1.07582,-0.20687 2.63257,-0.19901 3.45946,0.0175 0.82688,0.21647 -0.0533,0.38572 -1.95603,0.37612 -1.9027,-0.01 -2.57925,-0.18671 -1.50343,-0.39358 z M 1074,837.46326 c 0.6243,-0.24984 1.3703,-0.21911 1.6577,0.0683 0.2874,0.28739 -0.2235,0.4918 -1.1352,0.45425 -1.0075,-0.0415 -1.2124,-0.24644 -0.5225,-0.52252 z m 83.5791,-29.67947 c 0,-16.88649 0.1158,-23.7946 0.2574,-15.35135 0.1416,8.44324 0.1416,22.25945 0,30.7027 -0.1416,8.44324 -0.2574,1.53513 -0.2574,-15.35135 z m -711.79349,5.62162 c 4.3e-4,-13.31892 0.12049,-18.64673 0.26679,-11.83957 0.1463,6.80716 0.14595,17.70446 -7.9e-4,24.21622 -0.14674,6.51176 -0.26644,0.94227 -0.266,-12.37665 z m 153.95563,-6.48649 c 0,-16.88648 0.11585,-23.79459 0.25744,-15.35135 0.1416,8.44324 0.1416,22.25946 0,30.7027 -0.14159,8.44325 -0.25744,1.53514 -0.25744,-15.35135 z m 235.23356,6.48649 c 4.4e-4,-13.31892 0.12049,-18.64673 0.26679,-11.83957 0.1463,6.80716 0.14595,17.70446 -7.9e-4,24.21622 -0.14674,6.51176 -0.26644,0.94227 -0.266,-12.37665 z m 38.02394,10.37838 c 10e-4,-7.61081 0.13341,-10.60855 0.29403,-6.66164 0.16061,3.94691 0.15972,10.17394 -0.002,13.83784 -0.16172,3.6639 -0.29313,0.43461 -0.29204,-7.1762 z m 347.71496,-16.43244 c 3e-4,-16.64864 0.1165,-23.33705 0.2582,-14.86313 0.1417,8.47393 0.1415,22.09555 -6e-4,30.27027 -0.142,8.17473 -0.2579,1.24151 -0.2576,-15.40714 z m -1061.2283,21.83784 -1.64756,-1.94594 1.94594,1.64755 c 1.82871,1.5483 2.33967,2.24434 1.64756,2.24434 -0.16411,0 -1.03979,-0.87568 -1.94594,-1.94595 z m 1017.0811,0 -1.6476,-1.94594 1.946,1.64755 c 1.8287,1.5483 2.3396,2.24434 1.6475,2.24434 -0.1641,0 -1.0398,-0.87568 -1.9459,-1.94595 z m -546.19033,-3.02702 c -1.07578,-1.37173 -1.04519,-1.40232 0.32654,-0.32654 0.83243,0.65284 1.51351,1.33392 1.51351,1.51351 0,0.71182 -0.71022,0.25367 -1.84005,-1.18697 z m -448.91671,-0.80702 c 0.62432,-0.24984 1.37027,-0.21911 1.65766,0.0683 0.28739,0.28738 -0.22343,0.49179 -1.13514,0.45424 -1.00752,-0.0415 -1.21245,-0.24643 -0.52252,-0.52252 z m 832.86484,0 c 0.6244,-0.24984 1.3703,-0.21911 1.6577,0.0683 0.2874,0.28738 -0.2234,0.49179 -1.1351,0.45424 -1.0076,-0.0415 -1.2125,-0.24643 -0.5226,-0.52252 z m 62.2162,0.018 c 0.5946,-0.23993 1.5676,-0.23993 2.1622,0 0.5946,0.23992 0.1081,0.43622 -1.0811,0.43622 -1.1892,0 -1.6756,-0.1963 -1.0811,-0.43622 z m 62.3762,-3.53533 c -1.0758,-1.37172 -1.0452,-1.40231 0.3265,-0.32653 0.8325,0.65284 1.5136,1.33392 1.5136,1.51351 0,0.71181 -0.7103,0.25367 -1.8401,-1.18698 z m -944.75454,-1.08108 c 0.86096,-0.95135 1.75998,-1.72973 1.99782,-1.72973 0.23784,0 -0.27199,0.77838 -1.13295,1.72973 -0.86096,0.95135 -1.75998,1.72973 -1.99782,1.72973 -0.23784,0 0.27199,-0.77838 1.13295,-1.72973 z m 478.59239,-0.64865 c -1.07578,-1.37172 -1.04519,-1.40231 0.32653,-0.32653 1.44065,1.12983 1.8988,1.84004 1.18698,1.84004 -0.17959,0 -0.86067,-0.68108 -1.51351,-1.51351 z m -50.16216,-2.59459 c -1.07578,-1.37173 -1.04519,-1.40232 0.32653,-0.32654 0.83243,0.65284 1.51352,1.33392 1.51352,1.51352 0,0.71181 -0.71022,0.25366 -1.84005,-1.18698 z m 508.54051,-4.32433 c -1.0757,-1.37172 -1.0452,-1.40231 0.3266,-0.32653 0.8324,0.65284 1.5135,1.33392 1.5135,1.51351 0,0.71181 -0.7102,0.25367 -1.8401,-1.18698 z m -754.75315,-5.58916 -0.16353,-5.80539 -8,-0.28539 -8,-0.28539 8.02714,-0.1795 c 9.22147,-0.2062 9.08592,-0.32055 8.61555,7.2687 l -0.31563,5.09235 z m -211.98715,1.40898 c 0.0415,-1.00752 0.24644,-1.21245 0.52253,-0.52252 0.24983,0.62432 0.21911,1.37027 -0.0683,1.65766 -0.28739,0.28738 -0.4918,-0.22343 -0.45425,-1.13514 z m 95.49929,-0.36036 c 0.86096,-0.95135 1.75998,-1.72973 1.99782,-1.72973 0.23784,0 -0.27199,0.77838 -1.13295,1.72973 -0.86096,0.95135 -1.75998,1.72973 -1.99782,1.72973 -0.23784,0 0.27199,-0.77838 1.13295,-1.72973 z m -95.49929,-3.0991 c 0.0415,-1.00752 0.24644,-1.21245 0.52253,-0.52252 0.24983,0.62432 0.21911,1.37027 -0.0683,1.65766 -0.28739,0.28739 -0.4918,-0.22343 -0.45425,-1.13514 z m -34.42056,-4.45659 c 2.27381,-0.17875 5.77652,-0.17659 7.78379,0.005 2.00727,0.18138 0.14687,0.32763 -4.13421,0.32499 -4.28108,-0.003 -5.92339,-0.15104 -3.64958,-0.32978 z m 367.56757,0 c 2.27381,-0.17875 5.77652,-0.17659 7.78379,0.005 2.00726,0.18138 0.14687,0.32763 -4.13421,0.32499 -4.28108,-0.003 -5.92339,-0.15104 -3.64958,-0.32978 z m -66.54613,-17.52539 c 0,-3.56757 0.15266,-5.02703 0.33925,-3.24324 0.18659,1.78378 0.18659,4.7027 0,6.48648 -0.18659,1.78379 -0.33925,0.32433 -0.33925,-3.24324 z m 80.43243,0 c 0,-3.56757 0.15266,-5.02703 0.33925,-3.24324 0.18659,1.78378 0.18659,4.7027 0,6.48648 -0.18659,1.78379 -0.33925,0.32433 -0.33925,-3.24324 z m 253.81734,5.46325 c 0.62432,-0.24983 1.37027,-0.21911 1.65765,0.0683 0.28739,0.28739 -0.22342,0.4918 -1.13513,0.45425 -1.00752,-0.0415 -1.21245,-0.24644 -0.52252,-0.52253 z m 84.34482,-5.46325 c 0,-3.56757 0.15267,-5.02703 0.33926,-3.24324 0.18659,1.78378 0.18659,4.7027 0,6.48648 -0.18659,1.78379 -0.33926,0.32433 -0.33926,-3.24324 z m 113.70923,5.46325 c 0.62433,-0.24983 1.37027,-0.21911 1.65766,0.0683 0.28739,0.28739 -0.22342,0.4918 -1.13514,0.45425 -1.00751,-0.0415 -1.21245,-0.24644 -0.52252,-0.52253 z m 51.027,0 c 0.6244,-0.24983 1.3703,-0.21911 1.6577,0.0683 0.2874,0.28739 -0.2234,0.4918 -1.1351,0.45425 -1.0076,-0.0415 -1.2125,-0.24644 -0.5226,-0.52253 z m -270.97295,-3.7335 c 0.86097,-0.95135 1.75998,-1.72973 1.99782,-1.72973 0.23784,0 -0.27199,0.77838 -1.13295,1.72973 -0.86096,0.95135 -1.75998,1.72973 -1.99782,1.72973 -0.23783,0 0.27199,-0.77838 1.13295,-1.72973 z m 292.69135,-0.64865 -2.0967,-2.37838 2.3783,2.09671 c 1.3081,1.15318 2.3784,2.22345 2.3784,2.37838 0,0.67829 -0.7004,0.12624 -2.66,-2.09671 z m -876.90756,1.18698 c 0,-0.17959 0.68108,-0.86067 1.51351,-1.51351 1.37172,-1.07578 1.40231,-1.04519 0.32653,0.32653 -1.12983,1.44065 -1.84004,1.89879 -1.84004,1.18698 z m 526.54054,-8.91291 c 0.62432,-0.24984 1.37027,-0.21911 1.65766,0.0683 0.28738,0.28739 -0.22343,0.4918 -1.13514,0.45425 -1.00752,-0.0415 -1.21245,-0.24644 -0.52252,-0.52252 z M 406.02407,667.67568 c 0,-24.97297 0.11051,-35.18919 0.24557,-22.7027 0.13506,12.48648 0.13506,32.91891 0,45.4054 -0.13506,12.48649 -0.24557,2.27027 -0.24557,-22.7027 z m 577.72973,0 c 0,-24.97297 0.11051,-35.18919 0.24557,-22.7027 0.13506,12.48648 0.13506,32.91891 0,45.4054 -0.13506,12.48649 -0.24557,2.27027 -0.24557,-22.7027 z m 221.3939,10.37838 c 0,-17.36217 0.1154,-24.46487 0.2565,-15.78379 0.141,8.68108 0.141,22.88649 0,31.56757 -0.1411,8.68108 -0.2565,1.57838 -0.2565,-15.78378 z m -500.28283,15.24103 c 0,-0.17959 0.68108,-0.86067 1.51351,-1.51351 1.37173,-1.07578 1.40232,-1.04519 0.32654,0.32653 -1.12984,1.44065 -1.84005,1.89879 -1.84005,1.18698 z m -521.63479,-5.0878 c 0.36192,-0.36166 18.34268,-0.55608 39.95723,-0.43204 l 39.29918,0.22552 -39.95723,0.43205 c -21.97648,0.23763 -39.66111,0.13614 -39.29918,-0.22553 z m 426.89019,-23.35596 c -0.23103,-0.60204 -0.30936,-11.40204 -0.17408,-24 l 0.24596,-22.90538 0.20122,23.55321 0.20123,23.5532 22.7027,0.24557 22.7027,0.24557 -22.72984,0.20122 c -17.68484,0.15657 -22.82308,-0.0417 -23.14989,-0.89339 z m 225.18176,0.44668 c 10.61612,-0.13768 27.74044,-0.13752 38.05406,3.6e-4 10.31361,0.13787 1.6277,0.25052 -19.30203,0.25033 -20.92973,-2e-4 -29.36814,-0.11301 -18.75203,-0.25069 z M 675.59602,642.5946 c 0,-1.18919 0.1963,-1.67568 0.43623,-1.08108 0.23992,0.59459 0.23992,1.56756 0,2.16216 -0.23993,0.59459 -0.43623,0.10811 -0.43623,-1.08108 z m -474.94852,0.21621 c -6.4e-4,-0.35675 6.51828,-0.5487 14.48648,-0.42655 26.8084,0.41096 29.32735,0.71839 7.35251,0.89736 -12.01081,0.0978 -21.83836,-0.11405 -21.83899,-0.47081 z m 525.0424,-6.77477 c 0.0415,-1.00752 0.24644,-1.21246 0.52253,-0.52252 0.24983,0.62432 0.21911,1.37027 -0.0683,1.65765 -0.28739,0.28739 -0.4918,-0.22342 -0.45425,-1.13513 z m 445.5142,0.72867 23.0959,-0.25227 0.3196,-5.61104 0.3195,-5.61103 -0.064,5.8413 -0.064,5.84131 -23.3513,0.022 -23.3514,0.022 z m 33.7432,-12.11606 0.1905,-12.75676 0.2656,12.31002 0.2655,12.31001 22.6791,0.24552 22.679,0.24552 -23.1351,0.20122 -23.1351,0.20123 z m -72.0398,5.18919 -2.0967,-2.37838 2.3784,2.09671 c 1.3081,1.15318 2.3784,2.22345 2.3784,2.37837 0,0.6783 -0.7004,0.12625 -2.6601,-2.0967 z m -17.1635,-13.69369 c 0.042,-1.00752 0.2464,-1.21246 0.5225,-0.52253 0.2498,0.62433 0.2191,1.37027 -0.068,1.65766 -0.2874,0.28739 -0.4918,-0.22342 -0.4542,-1.13513 z m 167.7837,-6.91892 c 0.041,-1.00752 0.2465,-1.21246 0.5226,-0.52252 0.2498,0.62432 0.2191,1.37027 -0.068,1.65765 -0.2874,0.28739 -0.4918,-0.22342 -0.4543,-1.13513 z m -78.425,-21.54955 c 0,-7.13514 0.1351,-9.93897 0.2976,-6.23074 0.1625,3.70822 0.1616,9.54606 0,12.97297 -0.1637,3.42691 -0.2967,0.3929 -0.2954,-6.74223 z m 67.4638,-0.64865 -1.6476,-1.94595 1.946,1.64756 c 1.8287,1.5483 2.3396,2.24434 1.6475,2.24434 -0.1641,0 -1.0398,-0.87568 -1.9459,-1.94595 z M 406.00618,549.62162 c -3.6e-4,-14.74594 0.11756,-20.89996 0.26206,-13.67559 0.14449,7.22437 0.14479,19.28923 6.6e-4,26.81081 -0.14413,7.52158 -0.26235,1.61073 -0.26272,-13.13522 z m 577.72973,0 c -3.6e-4,-14.74594 0.11756,-20.89996 0.26206,-13.67559 0.1445,7.22437 0.1448,19.28923 6.7e-4,26.81081 -0.14414,7.52158 -0.26236,1.61073 -0.26273,-13.13522 z m 210.44049,18.38037 c 0.4183,-14.52577 0.7528,-15.95577 0.911,-3.89388 0.086,6.54054 -0.136,11.89279 -0.4928,11.89388 -0.3568,10e-4 -0.545,-3.59891 -0.4182,-8 z M 610.10993,547.02703 c 4.4e-4,-13.31892 0.1205,-18.64672 0.2668,-11.83957 0.1463,6.80716 0.14594,17.70446 -7.9e-4,24.21622 -0.14674,6.51176 -0.26644,0.94227 -0.26601,-12.37665 z m 56.26845,17.72973 c 0.86096,-0.95135 1.75998,-1.72973 1.99782,-1.72973 0.23784,0 -0.27199,0.77838 -1.13295,1.72973 -0.86096,0.95135 -1.75998,1.72973 -1.99782,1.72973 -0.23784,0 0.27199,-0.77838 1.13295,-1.72973 z m 538.64642,-6.48649 c 0,-2.85405 0.1663,-3.91735 0.3588,-2.36289 0.1924,1.55447 0.1885,3.8896 -0.01,5.18919 -0.1973,1.29959 -0.3548,0.0278 -0.3499,-2.8263 z m -683.44301,-3.53153 c 0.0415,-1.00752 0.24644,-1.21245 0.52253,-0.52252 0.24983,0.62432 0.21911,1.37027 -0.0683,1.65766 -0.28739,0.28738 -0.4918,-0.22343 -0.45425,-1.13514 z m 577.72971,0 c 0.042,-1.00752 0.2465,-1.21245 0.5225,-0.52252 0.2499,0.62432 0.2192,1.37027 -0.068,1.65766 -0.2874,0.28738 -0.4918,-0.22343 -0.4543,-1.13514 z m -376.21619,-2.59459 c 0.0415,-1.00752 0.24643,-1.21246 0.52252,-0.52253 0.24984,0.62433 0.21911,1.37027 -0.0683,1.65766 -0.28738,0.28739 -0.49179,-0.22342 -0.45424,-1.13513 z m 441.64519,-24.64591 c 0.3058,-1.16947 0.6979,-1.56151 0.9138,-0.91377 0.208,0.62395 -0.033,1.54565 -0.5356,2.04822 -0.6418,0.64179 -0.7544,0.30412 -0.3782,-1.13445 z m 69.4899,-3.02977 c 0.042,-1.00752 0.2465,-1.21245 0.5226,-0.52252 0.2498,0.62432 0.2191,1.37027 -0.068,1.65766 -0.2874,0.28738 -0.4918,-0.22343 -0.4543,-1.13514 z M 585.72973,475.0276 c 13.2,-0.13428 34.8,-0.13428 48,0 13.2,0.13428 2.4,0.24415 -24,0.24415 -26.4,0 -37.2,-0.10987 -24,-0.24415 z"
         id="path7" />
      <path
         style="fill:#a6c6b4"
         d="m 642.43244,838.32812 c 0.62432,-0.24983 1.37027,-0.21911 1.65765,0.0683 0.28739,0.28739 -0.22342,0.4918 -1.13513,0.45424 -1.00752,-0.0415 -1.21246,-0.24643 -0.52252,-0.52252 z m 512.86486,0 c 0.6243,-0.24983 1.3703,-0.21911 1.6577,0.0683 0.2873,0.28739 -0.2235,0.4918 -1.1352,0.45424 -1.0075,-0.0415 -1.2124,-0.24643 -0.5225,-0.52252 z m -643.0135,-6.76055 c 0.004,-3.32973 0.16016,-4.58591 0.34738,-2.79152 0.18722,1.79439 0.18408,4.51872 -0.007,6.05405 -0.19106,1.53534 -0.34424,0.0672 -0.3404,-3.26253 z m 99.53617,-10.37838 c 8.3e-4,-9.03784 0.12899,-12.61762 0.28479,-7.95508 0.15581,4.66255 0.15513,12.05714 -0.002,16.43244 -0.15664,4.37529 -0.28412,0.56048 -0.28328,-8.47736 z m 211.04672,-7.78378 c 4.4e-4,-13.31892 0.12049,-18.64673 0.2668,-11.83957 0.1463,6.80716 0.14594,17.70446 -8e-4,24.21622 -0.14673,6.51176 -0.26643,0.94227 -0.266,-12.37665 z m 62.24016,10.37838 c 10e-4,-7.61081 0.1334,-10.60855 0.29402,-6.66164 0.16062,3.94691 0.15973,10.17394 -0.002,13.83784 -0.16171,3.6639 -0.29313,0.43461 -0.29203,-7.1762 z m 347.71435,-16 c 0,-16.41081 0.1163,-23.12433 0.2585,-14.91892 0.1421,8.2054 0.1421,21.63243 0,29.83784 -0.1422,8.2054 -0.2585,1.49189 -0.2585,-14.91892 z m 44.0031,23.78378 c 0,-3.32973 0.1602,-4.58591 0.3474,-2.79152 0.1872,1.79439 0.1841,4.51872 -0.01,6.05405 -0.191,1.53534 -0.3442,0.0672 -0.3404,-3.26253 z m -240.2838,-2.16216 c 0.861,-0.95135 1.76,-1.72973 1.9979,-1.72973 0.2378,0 -0.272,0.77838 -1.133,1.72973 -0.861,0.95135 -1.76,1.72973 -1.9978,1.72973 -0.2378,0 0.272,-0.77838 1.1329,-1.72973 z M 141.25677,807.35135 c 0.004,-3.32973 0.16016,-4.58591 0.34738,-2.79152 0.18722,1.7944 0.18408,4.51872 -0.007,6.05406 -0.19105,1.53533 -0.34424,0.0672 -0.3404,-3.26254 z M 1145.4416,794.37838 c 8e-4,-9.03784 0.129,-12.61762 0.2848,-7.95508 0.1558,4.66255 0.1551,12.05714 0,16.43244 -0.1567,4.37529 -0.2841,0.56048 -0.2833,-8.47736 z m -453.78521,12.78121 c 1.53534,-0.19106 4.25966,-0.1942 6.05405,-0.007 1.7944,0.18722 0.53821,0.34354 -2.79152,0.34738 -3.32973,0.004 -4.79787,-0.14934 -3.26253,-0.3404 z M 143.85137,784 c 0.004,-3.32973 0.16015,-4.58591 0.34737,-2.79152 0.18723,1.7944 0.18409,4.51872 -0.007,6.05406 -0.19106,1.53533 -0.34424,0.0672 -0.3404,-3.26254 z m 618.79728,-7.07728 c 0.62433,-0.24984 1.37027,-0.21911 1.65766,0.0683 0.28739,0.28739 -0.22342,0.4918 -1.13514,0.45425 -1.00751,-0.0415 -1.21245,-0.24644 -0.52252,-0.52252 z m 4.32433,0 c 0.62432,-0.24984 1.37027,-0.21911 1.65765,0.0683 0.28739,0.28739 -0.22342,0.4918 -1.13513,0.45425 -1.00752,-0.0415 -1.21245,-0.24644 -0.52252,-0.52252 z m 428.97302,0 c 0.6243,-0.24984 1.3702,-0.21911 1.6576,0.0683 0.2874,0.28739 -0.2234,0.4918 -1.1351,0.45425 -1.0075,-0.0415 -1.2125,-0.24644 -0.5225,-0.52252 z M 768.42032,594.16216 c 0,-65.4054 0.1027,-92.16216 0.22823,-59.45946 0.12553,32.70271 0.12553,86.21622 0,118.91892 -0.12553,32.70271 -0.22823,5.94595 -0.22823,-59.45946 z m 47.52666,47.56757 c 0,-13.08108 0.12021,-18.43243 0.26713,-11.89189 0.14693,6.54054 0.14693,17.24324 0,23.78378 -0.14692,6.54054 -0.26713,1.18919 -0.26713,-11.89189 z m 299.94682,-29.83784 c 0.01,-1.9027 0.1867,-2.57924 0.3936,-1.50343 0.2068,1.07582 0.199,2.63258 -0.017,3.45946 -0.2165,0.82689 -0.3857,-0.0533 -0.3761,-1.95603 z m 78.8283,-11.67567 c 0,-6.8973 0.1343,-9.71892 0.2985,-6.27027 0.1641,3.44865 0.1641,9.09189 0,12.54054 -0.1642,3.44865 -0.2985,0.62703 -0.2985,-6.27027 z M 416.64865,576.21881 c 5.82703,-0.14962 15.36216,-0.14962 21.18919,0 5.82703,0.14963 1.05946,0.27205 -10.59459,0.27205 -11.65406,0 -16.42163,-0.12242 -10.5946,-0.27205 z m 577.72973,0 c 5.82702,-0.14962 15.36212,-0.14962 21.18922,0 5.827,0.14963 1.0594,0.27205 -10.5946,0.27205 -11.65408,0 -16.42164,-0.12242 -10.59462,-0.27205 z M 815.94777,547.02703 c 4.4e-4,-13.31892 0.1205,-18.64672 0.2668,-11.83957 0.1463,6.80716 0.14594,17.70446 -8e-4,24.21622 -0.14673,6.51176 -0.26643,0.94227 -0.266,-12.37665 z m 438.17453,16.36036 c 0.042,-1.00752 0.2465,-1.21245 0.5226,-0.52252 0.2498,0.62432 0.2191,1.37027 -0.068,1.65765 -0.2874,0.28739 -0.4918,-0.22342 -0.4543,-1.13513 z M 723.16359,541.40541 c 0,-1.18919 0.1963,-1.67568 0.43622,-1.08108 0.23993,0.59459 0.23993,1.56756 0,2.16216 -0.23992,0.59459 -0.43622,0.10811 -0.43622,-1.08108 z m 442.01001,-18.16216 c 0,-1.66487 0.178,-2.34595 0.3956,-1.51352 0.2175,0.83243 0.2175,2.1946 0,3.02703 -0.2176,0.83243 -0.3956,0.15135 -0.3956,-1.51351 z"
         id="path6" />
      <path
         style="fill:#8cb7a1"
         d="m 298.76719,807.78379 c 0,-16.41081 0.1163,-23.12433 0.25845,-14.91892 0.14215,8.2054 0.14215,21.63243 0,29.83784 -0.14215,8.2054 -0.25845,1.49189 -0.25845,-14.91892 z m 50.16216,0 c 0,-16.41081 0.1163,-23.12433 0.25845,-14.91892 0.14215,8.2054 0.14215,21.63243 0,29.83784 -0.14215,8.2054 -0.25845,1.49189 -0.25845,-14.91892 z m 108.96437,5.62162 c 4.3e-4,-13.31892 0.12049,-18.64673 0.26679,-11.83957 0.1463,6.80716 0.14594,17.70446 -7.9e-4,24.21622 -0.14674,6.51176 -0.26644,0.94227 -0.266,-12.37665 z m 65.73833,-5.62162 c 0,-16.41081 0.11631,-23.12433 0.25845,-14.91892 0.14215,8.2054 0.14215,21.63243 0,29.83784 -0.14214,8.2054 -0.25845,1.49189 -0.25845,-14.91892 z m 51.02703,0 c 0,-16.41081 0.1163,-23.12433 0.25845,-14.91892 0.14215,8.2054 0.14215,21.63243 0,29.83784 -0.14215,8.2054 -0.25845,1.49189 -0.25845,-14.91892 z m -444.68704,5.41728 c 2.27381,-0.17875 5.77652,-0.1766 7.78379,0.005 2.00727,0.18138 0.14687,0.32763 -4.13421,0.32499 -4.28108,-0.003 -5.92339,-0.15104 -3.64958,-0.32978 z m 234.35229,0.001 c 2.25946,-0.17816 5.95675,-0.17816 8.21621,0 2.25946,0.17816 0.41081,0.32393 -4.10811,0.32393 -4.51891,0 -6.36756,-0.14577 -4.1081,-0.32393 z m 133.21528,-0.001 c 2.27381,-0.17875 5.77652,-0.1766 7.78379,0.005 2.00726,0.18138 0.14687,0.32763 -4.13421,0.32499 -4.28108,-0.003 -5.92339,-0.15104 -3.64958,-0.32978 z m 435.71786,-4.19206 c 0.0415,-1.00752 0.24644,-1.21245 0.52253,-0.52252 0.24983,0.62432 0.2191,1.37027 -0.0683,1.65766 -0.28739,0.28738 -0.4918,-0.22343 -0.45425,-1.13514 z M 238.4672,802.83526 c 1.53533,-0.19106 4.25966,-0.1942 6.05405,-0.007 1.79439,0.18722 0.53821,0.34354 -2.79152,0.34738 -3.32973,0.004 -4.79787,-0.14935 -3.26253,-0.34041 z m 300.1274,-10e-4 c 1.54594,-0.19185 4.07567,-0.19185 5.62162,0 1.54594,0.19185 0.28108,0.34882 -2.81081,0.34882 -3.09189,0 -4.35676,-0.15697 -2.81081,-0.34882 z m -66.21485,-18.60195 -0.16353,-5.82218 -20.54054,-0.24829 -20.54054,-0.24829 20.56768,-0.1998 c 16.69593,-0.16218 20.65277,0.0219 21.0197,0.97813 0.2486,0.64785 0.30998,3.46948 0.13639,6.27027 l -0.31563,5.09235 z m 335.77733,-0.6643 0.0591,-5.62162 20.75676,-0.0245 20.75675,-0.0245 -20.50138,0.25628 -20.50138,0.25627 -0.31452,5.38985 -0.31452,5.38984 z m -604.56358,1.51351 -1.64755,-1.94594 1.94594,1.64755 c 1.82871,1.5483 2.33967,2.24434 1.64756,2.24434 -0.16411,0 -1.03979,-0.87568 -1.94595,-1.94595 z m 973.0552,0.21622 c 0.8609,-0.95135 1.7599,-1.72973 1.9978,-1.72973 0.2378,0 -0.272,0.77838 -1.133,1.72973 -0.8609,0.95135 -1.76,1.72973 -1.9978,1.72973 -0.2378,0 0.272,-0.77838 1.133,-1.72973 z m -779.84234,-7.56537 c 5.8543,-0.14985 15.19484,-0.14938 20.75675,0.001 5.56191,0.15041 0.77203,0.27301 -10.64419,0.27244 -11.41622,-5.6e-4 -15.96687,-0.12363 -10.11256,-0.27347 z m 239.08554,0.0164 c 1.78378,-0.18658 4.7027,-0.18658 6.48648,0 1.78379,0.18659 0.32433,0.33926 -3.24324,0.33926 -3.56757,0 -5.02703,-0.15267 -3.24324,-0.33926 z m 512.4131,0.006 c 1.5354,-0.19106 4.2597,-0.1942 6.0541,-0.007 1.7944,0.18723 0.5382,0.34355 -2.7915,0.34738 -3.3298,0.004 -4.7979,-0.14934 -3.2626,-0.3404 z m -185.0077,-0.83146 c 0.62433,-0.24984 1.37027,-0.21911 1.65766,0.0683 0.28739,0.28739 -0.22342,0.4918 -1.13514,0.45425 -1.00751,-0.0415 -1.21245,-0.24644 -0.52252,-0.52252 z M 725.6899,639.4955 c 0.0415,-1.00752 0.24644,-1.21246 0.52253,-0.52252 0.24983,0.62432 0.21911,1.37027 -0.0683,1.65765 -0.28739,0.28739 -0.4918,-0.22342 -0.45425,-1.13513 z m 557.8378,-26.81081 c 0.041,-1.00752 0.2465,-1.21246 0.5226,-0.52253 0.2498,0.62433 0.2191,1.37027 -0.068,1.65766 -0.2874,0.28739 -0.4918,-0.22342 -0.4543,-1.13513 z m -159.2034,-23.17338 c 0,-0.1796 0.6811,-0.86068 1.5135,-1.51352 1.3718,-1.07578 1.4024,-1.04519 0.3266,0.32654 -1.1299,1.44064 -1.8401,1.89879 -1.8401,1.18698 z m 139.3116,-26.12392 c 0.042,-1.00752 0.2464,-1.21245 0.5225,-0.52252 0.2498,0.62432 0.2191,1.37027 -0.068,1.65765 -0.2874,0.28739 -0.4918,-0.22342 -0.4542,-1.13513 z m -118.4865,-0.86487 c 0.042,-1.00751 0.2464,-1.21245 0.5225,-0.52252 0.2498,0.62433 0.2191,1.37027 -0.068,1.65766 -0.2874,0.28739 -0.4918,-0.22342 -0.4542,-1.13514 z m -673.62944,-12.9009 c 0.0176,-1.42702 0.21146,-1.9061 0.43074,-1.06462 0.21928,0.84149 0.20486,2.00906 -0.032,2.5946 -0.23691,0.58554 -0.41632,-0.10295 -0.39869,-1.52998 z m 577.72974,0 c 0.018,-1.42702 0.2114,-1.9061 0.4307,-1.06462 0.2193,0.84149 0.2049,2.00906 -0.032,2.5946 -0.2369,0.58554 -0.4163,-0.10295 -0.3987,-1.52998 z M 723.26259,546.5946 c 0,-2.14054 0.16866,-3.01622 0.3748,-1.94595 0.20615,1.07027 0.20615,2.82162 0,3.89189 -0.20614,1.07027 -0.3748,0.1946 -0.3748,-1.94594 z m 376.19881,-0.43244 c 0.01,-1.9027 0.1867,-2.57924 0.3935,-1.50343 0.2069,1.07582 0.199,2.63258 -0.017,3.45946 -0.2165,0.82689 -0.3857,-0.0533 -0.3761,-1.95603 z M 521.68212,545.2973 c 0.0176,-1.42703 0.21146,-1.90611 0.43074,-1.06462 0.21928,0.84148 0.20486,2.00905 -0.032,2.59459 -0.2369,0.58554 -0.41632,-0.10294 -0.39869,-1.52997 z m 701.58708,-46.48649 -1.6476,-1.94594 1.946,1.64755 c 1.8287,1.5483 2.3396,2.24434 1.6475,2.24434 -0.1641,0 -1.0398,-0.87568 -1.9459,-1.94595 z m -518.91894,-4.32432 -1.64755,-1.94595 1.94594,1.64756 c 1.82871,1.5483 2.33967,2.24433 1.64756,2.24433 -0.16412,0 -1.03979,-0.87567 -1.94595,-1.94594 z"
         id="path5" />
      <path
         style="fill:#6fa58a"
         d="m 400.81264,813.40541 c 4.3e-4,-13.31892 0.12049,-18.64673 0.26679,-11.83957 0.1463,6.80716 0.14594,17.70446 -7.9e-4,24.21622 -0.14674,6.51176 -0.26644,0.94227 -0.266,-12.37665 z m 398.52665,-5.36589 -0.20415,-29.58211 -5.83784,-0.30255 -5.83784,-0.30256 5.86498,-0.16939 c 4.04354,-0.11679 5.99456,0.16826 6.2822,0.91784 0.22946,0.59797 0.30912,14.1223 0.17701,30.05405 l -0.2402,28.96682 z m -98.45065,12.71724 c 0,-7.37297 0.13265,-10.38919 0.29477,-6.7027 0.16212,3.68648 0.16212,9.71892 0,13.4054 -0.16212,3.68649 -0.29477,0.67027 -0.29477,-6.7027 z m 360.65086,10.16216 -1.6476,-1.94594 1.9459,1.64755 c 1.8288,1.5483 2.3397,2.24434 1.6476,2.24434 -0.1641,0 -1.0398,-0.87568 -1.9459,-1.94595 z m -857.86382,-1.51351 c 0.86096,-0.95135 1.75998,-1.72973 1.99781,-1.72973 0.23784,0 -0.27199,0.77838 -1.13295,1.72973 -0.86096,0.95135 -1.75998,1.72973 -1.99781,1.72973 -0.23784,0 0.27199,-0.77838 1.13295,-1.72973 z m 738.05184,-0.64865 c -1.07578,-1.37172 -1.04519,-1.40231 0.32654,-0.32653 0.83243,0.65283 1.51351,1.33392 1.51351,1.51351 0,0.71181 -0.71021,0.25367 -1.84005,-1.18698 z m -576.53833,-3.44994 c 2.73514,-0.17163 7.21081,-0.17163 9.94595,0 2.73513,0.17164 0.49729,0.31206 -4.97298,0.31206 -5.47027,0 -7.7081,-0.14042 -4.97297,-0.31206 z m 128.14235,-0.53879 c -0.2486,-0.64786 -0.30998,-3.46948 -0.13639,-6.27027 l 0.31563,-5.09235 0.16353,5.80858 0.16353,5.80857 9.2973,0.27802 9.29729,0.27801 -9.32444,0.18368 c -7.20003,0.14183 -9.42742,-0.0847 -9.77645,-0.99424 z m 764.75856,0.60134 c -0.3171,-0.31711 -0.5766,-11.00204 -0.5766,-23.74427 v -23.16769 l -5.6251,-0.31988 -5.6251,-0.31988 5.8413,0.0642 5.8414,0.0642 0.23,23.53845 0.2301,23.53845 9.2834,0.27787 9.2835,0.27787 -9.1532,0.18368 c -5.0342,0.10102 -9.4126,-0.0758 -9.7297,-0.3929 z M 169.4032,820.97298 c -1.07578,-1.37173 -1.04519,-1.40232 0.32653,-0.32654 0.83243,0.65284 1.51351,1.33392 1.51351,1.51352 0,0.71181 -0.71021,0.25366 -1.84004,-1.18698 z m 887.0053,-23.13514 0.024,-19.89189 5.8413,-0.0642 5.8413,-0.0642 -5.6092,0.31952 -5.6092,0.31952 -0.256,19.63652 -0.256,19.63652 z m 31.1342,-0.21573 0.025,-19.67616 5.8413,-0.0642 5.8413,-0.0642 -5.609,0.31951 -5.6089,0.31952 -0.2573,19.4208 -0.2572,19.4208 z m -850.35351,16.48442 c 0.83243,-0.21753 2.19459,-0.21753 3.02703,0 0.83243,0.21754 0.15135,0.39552 -1.51352,0.39552 -1.66486,0 -2.34594,-0.17798 -1.51351,-0.39552 z m 300.10811,0 c 0.83243,-0.21753 2.19459,-0.21753 3.02703,0 0.83243,0.21754 0.15135,0.39552 -1.51352,0.39552 -1.66486,0 -2.34594,-0.17798 -1.51351,-0.39552 z m -28.47296,-6.75518 c 0.004,-3.32973 0.16016,-4.58591 0.34738,-2.79152 0.18722,1.7944 0.18408,4.51872 -0.007,6.05406 -0.19106,1.53533 -0.34424,0.0672 -0.3404,-3.26254 z m -357.33643,0.43244 c 0,-1.18919 0.1963,-1.67568 0.43623,-1.08108 0.23992,0.59459 0.23992,1.56756 0,2.16216 -0.23993,0.59459 -0.43623,0.10811 -0.43623,-1.08108 z m 516.32433,0 c 0,-1.18919 0.1963,-1.67568 0.43622,-1.08108 0.23993,0.59459 0.23993,1.56756 0,2.16216 -0.23992,0.59459 -0.43622,0.10811 -0.43622,-1.08108 z m -467.96018,-0.50451 c 0.0415,-1.00752 0.24644,-1.21245 0.52253,-0.52252 0.24983,0.62432 0.2191,1.37027 -0.0683,1.65766 -0.28739,0.28738 -0.4918,-0.22343 -0.45425,-1.13514 z m 293.41169,-11.6036 c 0,-3.56757 0.15266,-5.02703 0.33925,-3.24324 0.18659,1.78378 0.18659,4.7027 0,6.48648 -0.18659,1.78379 -0.33925,0.32433 -0.33925,-3.24324 z m 70.69642,-1.36937 c 0.0415,-1.00752 0.24644,-1.21245 0.52253,-0.52252 0.24983,0.62432 0.2191,1.37027 -0.0683,1.65765 -0.28739,0.28739 -0.4918,-0.22342 -0.45425,-1.13513 z M 672,795.34914 c 0,-0.17959 0.68108,-0.86067 1.51352,-1.51351 1.37172,-1.07578 1.40231,-1.04519 0.32653,0.32654 C 672.71022,795.60281 672,796.06096 672,795.34914 Z m -503.35135,-0.86486 c 0,-0.17959 0.68108,-0.86068 1.51351,-1.51351 1.37173,-1.07578 1.40232,-1.04519 0.32654,0.32653 -1.12984,1.44065 -1.84005,1.89879 -1.84005,1.18698 z m 517.40541,-5.45883 c 0.83243,-0.21754 2.19459,-0.21754 3.02702,0 0.83244,0.21754 0.15136,0.39552 -1.51351,0.39552 -1.66486,0 -2.34595,-0.17798 -1.51351,-0.39552 z m -353.94595,-10.64707 -6.48649,-0.55324 6.70271,-0.15581 c 3.99576,-0.0929 6.7027,0.19347 6.7027,0.70905 0,0.47568 -0.0973,0.79475 -0.21622,0.70905 -0.11892,-0.0857 -3.13513,-0.40477 -6.7027,-0.70905 z m 566.05406,0 -6.91892,-0.54767 7.13513,-0.15859 c 4.28592,-0.0953 7.13514,0.18676 7.13514,0.70626 0,0.47568 -0.0973,0.7935 -0.21622,0.70627 -0.11892,-0.0872 -3.32973,-0.40505 -7.13513,-0.70627 z m -775.95754,-0.64457 c 4.18552,-0.15888 10.80173,-0.15807 14.7027,0.002 3.90097,0.15988 0.47645,0.28987 -7.61003,0.28888 -8.08649,-10e-4 -11.27819,-0.13181 -7.09267,-0.29069 z m 108.0278,0.004 c 3.19,-0.16593 8.63865,-0.16703 12.10811,-0.002 3.46946,0.16458 0.85946,0.30034 -5.8,0.30169 -6.65946,10e-4 -9.49811,-0.13331 -6.30811,-0.29924 z m 71.3699,0.0163 c 1.53534,-0.19106 4.25966,-0.1942 6.05406,-0.007 1.79439,0.18723 0.53821,0.34355 -2.79152,0.34738 -3.32973,0.004 -4.79787,-0.14934 -3.26254,-0.3404 z m 54.98068,-0.0204 c 4.18552,-0.15888 10.80173,-0.15807 14.7027,0.002 3.90097,0.15988 0.47645,0.28987 -7.61003,0.28888 -8.08649,-10e-4 -11.27819,-0.13181 -7.09267,-0.29069 z m 132.28186,6.2e-4 c 4.16216,-0.15854 10.97297,-0.15854 15.13513,0 4.16216,0.15854 0.75676,0.28826 -7.56757,0.28826 -8.32432,0 -11.72972,-0.12972 -7.56756,-0.28826 z m 40.61081,0.003 c 3.19,-0.16593 8.63865,-0.16703 12.10811,-0.002 3.46946,0.16458 0.85946,0.30034 -5.8,0.30169 -6.65946,10e-4 -9.49811,-0.13331 -6.30811,-0.29924 z m 48.01855,0.0163 c 1.53533,-0.19106 4.25966,-0.1942 6.05405,-0.007 1.79439,0.18723 0.53821,0.34355 -2.79152,0.34738 -3.32973,0.004 -4.79787,-0.14934 -3.26253,-0.3404 z M 856,777.74512 c 2.02163,-0.18208 5.32973,-0.18208 7.35136,0 2.02162,0.18209 0.36756,0.33107 -3.67568,0.33107 -4.04324,0 -5.6973,-0.14898 -3.67568,-0.33107 z m 367.5483,0.009 c 1.5353,-0.19106 4.2596,-0.1942 6.054,-0.007 1.7944,0.18723 0.5382,0.34355 -2.7915,0.34738 -3.3297,0.004 -4.7979,-0.14934 -3.2625,-0.3404 z m -1043.81857,-0.8314 c 0.62432,-0.24984 1.37027,-0.21911 1.65766,0.0683 0.28739,0.28739 -0.22343,0.4918 -1.13514,0.45425 -1.00752,-0.0415 -1.21245,-0.24644 -0.52252,-0.52252 z m 4.32432,0 c 0.62433,-0.24984 1.37028,-0.21911 1.65766,0.0683 0.28739,0.28739 -0.22342,0.4918 -1.13513,0.45425 -1.00752,-0.0415 -1.21246,-0.24644 -0.52253,-0.52252 z m 827.62165,0.018 c 0.5946,-0.23992 1.5675,-0.23992 2.1621,0 0.5946,0.23993 0.1082,0.43623 -1.081,0.43623 -1.1892,0 -1.6757,-0.1963 -1.0811,-0.43623 z m 4.3243,0 c 0.5946,-0.23992 1.5676,-0.23992 2.1622,0 0.5946,0.23993 0.1081,0.43623 -1.0811,0.43623 -1.1892,0 -1.6757,-0.1963 -1.0811,-0.43623 z M 120.21532,712.86487 c -4.9e-4,-0.35676 7.88059,-0.54915 17.51352,-0.42755 33.36307,0.42118 36.41727,0.70731 9.5144,0.89133 -14.86486,0.10167 -27.02742,-0.10703 -27.02792,-0.46378 z m 164.59541,10e-4 c 7.52158,-0.14413 19.58645,-0.14383 26.81081,6.6e-4 7.22437,0.1445 1.07035,0.26242 -13.67559,0.26206 -14.74595,-3.7e-4 -20.6568,-0.11859 -13.13522,-0.26272 z m 73.6425,-0.4338 c -0.22627,-0.5946 -0.30995,-54.20541 -0.18596,-119.13514 l 0.22545,-118.05405 0.2131,118.6888 0.2131,118.6888 23.56757,0.24461 23.56757,0.2446 -23.59472,0.20173 c -18.2304,0.15586 -23.68824,-0.0441 -24.00611,-0.87935 z m 131.2765,0.43407 c 7.49189,-0.14398 19.75135,-0.14398 27.24325,0 7.49189,0.14398 1.36216,0.26178 -13.62163,0.26178 -14.98378,0 -21.11351,-0.1178 -13.62162,-0.26178 z m 96.86487,-10e-4 c 13.67567,-0.1338 36.05405,-0.1338 49.72973,0 13.67567,0.1338 2.48648,0.24327 -24.86487,0.24327 -27.35135,0 -38.54054,-0.10947 -24.86486,-0.24327 z m 243.01314,0.002 61.1753,-0.23084 0.25095,-23.12934 0.25096,-23.12934 -0.0208,23.35135 -0.0208,23.35135 -61.40541,0.009 -61.4054,0.009 z m 106.57523,-0.43546 c -0.22627,-0.5946 -0.30996,-54.20541 -0.18596,-119.13514 l 0.22544,-118.05405 0.2131,118.6888 0.2131,118.6888 23.56757,0.24461 23.56757,0.2446 -23.59471,0.20173 c -18.23041,0.15586 -23.68825,-0.0441 -24.00611,-0.87935 z m 131.27653,0.43407 c 7.4919,-0.14398 19.7513,-0.14398 27.2432,0 7.4919,0.14398 1.3622,0.26178 -13.6216,0.26178 -14.9838,0 -21.1135,-0.1178 -13.6216,-0.26178 z M 725.79023,643.02703 c 0.0176,-1.42703 0.21146,-1.90611 0.43074,-1.06462 0.21928,0.84148 0.20486,2.00905 -0.032,2.59459 -0.2369,0.58554 -0.41632,-0.10294 -0.39869,-1.52997 z M 878.21804,594.5946 c 4.4e-4,-13.31892 0.1205,-18.64673 0.2668,-11.83957 0.1463,6.80716 0.14594,17.70446 -8e-4,24.21622 -0.14673,6.51176 -0.26643,0.94227 -0.266,-12.37665 z m 247.10776,16.86486 c 0,-1.18919 0.1963,-1.67567 0.4362,-1.08108 0.2399,0.5946 0.2399,1.56757 0,2.16216 -0.2399,0.5946 -0.4362,0.10811 -0.4362,-1.08108 z m 10.3101,-46.34234 c 0.042,-1.00752 0.2464,-1.21245 0.5225,-0.52252 0.2498,0.62432 0.2191,1.37027 -0.068,1.65765 -0.2874,0.28739 -0.4918,-0.22342 -0.4542,-1.13513 z M 521.58179,548.68469 c 0.0415,-1.00752 0.24644,-1.21246 0.52253,-0.52253 0.24983,0.62433 0.21911,1.37027 -0.0683,1.65766 -0.28739,0.28739 -0.4918,-0.22342 -0.45425,-1.13513 z m 152.21622,0 c 0.0415,-1.00752 0.24644,-1.21246 0.52252,-0.52253 0.24984,0.62433 0.21911,1.37027 -0.0683,1.65766 -0.28739,0.28739 -0.4918,-0.22342 -0.45425,-1.13513 z m 497.01279,-10.44666 c 0.5946,-0.23992 1.5676,-0.23992 2.1622,0 0.5946,0.23992 0.1081,0.43623 -1.0811,0.43623 -1.1892,0 -1.6757,-0.19631 -1.0811,-0.43623 z m 57.0811,0 c 0.5946,-0.23992 1.5676,-0.23992 2.1622,0 0.5946,0.23992 0.1081,0.43623 -1.0811,0.43623 -1.1892,0 -1.6757,-0.19631 -1.0811,-0.43623 z m -606.65236,-15.6414 c 6.09256,-0.14887 15.82229,-0.14844 21.62162,9.6e-4 5.79934,0.14941 0.81452,0.27122 -11.07737,0.27069 -11.8919,-5.3e-4 -16.63681,-0.12277 -10.54425,-0.27165 z m 554.11186,-23.13717 c 1.1171,-1.18919 2.2258,-2.16216 2.4636,-2.16216 0.2379,0 -0.4816,0.97297 -1.5988,2.16216 -1.1172,1.18919 -2.2258,2.16216 -2.4637,2.16216 -0.2378,0 0.4817,-0.97297 1.5989,-2.16216 z M 455.62162,475.94974 c 0.62433,-0.24983 1.37027,-0.21911 1.65766,0.0683 0.28739,0.28739 -0.22342,0.4918 -1.13513,0.45424 -1.00752,-0.0415 -1.21246,-0.24643 -0.52253,-0.52252 z m 577.72978,0 c 0.6243,-0.24983 1.3702,-0.21911 1.6576,0.0683 0.2874,0.28739 -0.2234,0.4918 -1.1351,0.45424 -1.0075,-0.0415 -1.2125,-0.24643 -0.5225,-0.52252 z"
         id="path4" />
      <path
         style="fill:#4f9171"
         d="m 179.72973,837.46326 c 0.62432,-0.24984 1.37027,-0.21911 1.65766,0.0683 0.28739,0.28739 -0.22343,0.4918 -1.13514,0.45425 -1.00752,-0.0415 -1.21245,-0.24644 -0.52252,-0.52252 z m 3.45946,0 c 0.62432,-0.24984 1.37027,-0.21911 1.65766,0.0683 0.28739,0.28739 -0.22343,0.4918 -1.13514,0.45425 -1.00752,-0.0415 -1.21245,-0.24644 -0.52252,-0.52252 z m 461.52448,-29.24704 c 3e-4,-16.64865 0.11649,-23.33706 0.25821,-14.86313 0.14173,8.47393 0.14148,22.09555 -5.3e-4,30.27027 -0.14202,8.17472 -0.25797,1.24151 -0.25768,-15.40714 z m 367.88093,29.24704 c 0.6243,-0.24984 1.3703,-0.21911 1.6577,0.0683 0.2873,0.28739 -0.2235,0.4918 -1.1352,0.45425 -1.0075,-0.0415 -1.2124,-0.24644 -0.5225,-0.52252 z m 3.4595,0 c 0.6243,-0.24984 1.3702,-0.21911 1.6576,0.0683 0.2874,0.28739 -0.2234,0.4918 -1.1351,0.45425 -1.0075,-0.0415 -1.2125,-0.24644 -0.5225,-0.52252 z M 114.55097,807.78379 c 0,-16.41081 0.1163,-23.12433 0.25845,-14.91892 0.14215,8.2054 0.14215,21.63243 0,29.83784 -0.14215,8.2054 -0.25845,1.49189 -0.25845,-14.91892 z m 11.19567,17.72973 c 0.001,-6.65946 0.13712,-9.26946 0.3017,-5.8 0.16458,3.46946 0.16348,8.91811 -0.002,12.10811 -0.16593,3.18999 -0.30058,0.35135 -0.29924,-6.30811 z m 98.64217,-17.72973 c 0,-16.41081 0.1163,-23.12433 0.25845,-14.91892 0.14215,8.2054 0.14215,21.63243 0,29.83784 -0.14215,8.2054 -0.25845,1.49189 -0.25845,-14.91892 z m 11.19322,18.16216 c 0,-6.42162 0.13615,-9.04865 0.30256,-5.83784 0.1664,3.21081 0.1664,8.46487 0,11.67568 -0.16641,3.21081 -0.30256,0.58378 -0.30256,-5.83784 z m 877.02407,-19.02703 c 0,-16.88648 0.1159,-23.79459 0.2575,-15.35135 0.1415,8.44324 0.1415,22.25946 0,30.7027 -0.1416,8.44325 -0.2575,1.53514 -0.2575,-15.35135 z m 11.2139,14.27027 c 8e-4,-9.03784 0.129,-12.61762 0.2848,-7.95508 0.1558,4.66255 0.1551,12.05714 0,16.43244 -0.1567,4.37529 -0.2842,0.56048 -0.2833,-8.47736 z m -487.38977,11.02703 c -1.07578,-1.37172 -1.04519,-1.40231 0.32653,-0.32653 0.83243,0.65283 1.51351,1.33391 1.51351,1.51351 0,0.71181 -0.71021,0.25367 -1.84004,-1.18698 z m 456.32657,-1.08108 c 0.8609,-0.95135 1.7599,-1.72973 1.9978,-1.72973 0.2378,0 -0.272,0.77838 -1.133,1.72973 -0.8609,0.95135 -1.76,1.72973 -1.9978,1.72973 -0.2378,0 0.272,-0.77838 1.133,-1.72973 z m -428.60604,-2.37838 -2.0967,-2.37838 2.37838,2.09671 c 1.3081,1.15318 2.37837,2.22345 2.37837,2.37837 0,0.6783 -0.70036,0.12625 -2.66005,-2.0967 z m 79.11842,-0.43243 -1.64755,-1.94595 1.94594,1.64756 c 1.82871,1.5483 2.33967,2.24433 1.64756,2.24433 -0.16412,0 -1.03979,-0.87567 -1.94595,-1.94594 z m 401.70162,-0.43243 c -1.0758,-1.37173 -1.0452,-1.40232 0.3265,-0.32654 0.8324,0.65284 1.5135,1.33392 1.5135,1.51351 0,0.71182 -0.7102,0.25367 -1.84,-1.18697 z m -379.72755,-2.53675 c 0.62432,-0.24984 1.37027,-0.21911 1.65765,0.0683 0.28739,0.28738 -0.22342,0.49179 -1.13513,0.45424 -1.00752,-0.0415 -1.21245,-0.24643 -0.52252,-0.52252 z m 198.05405,0 c 0.62433,-0.24984 1.37027,-0.21911 1.65766,0.0683 0.28739,0.28738 -0.22342,0.49179 -1.13514,0.45424 -1.00751,-0.0415 -1.21245,-0.24643 -0.52252,-0.52252 z m -334.65086,-1.78758 c -1.07578,-1.37172 -1.04519,-1.40231 0.32654,-0.32653 0.83243,0.65283 1.51351,1.33392 1.51351,1.51351 0,0.71181 -0.71021,0.25367 -1.84005,-1.18698 z m 508.54056,-4.32432 c -1.0758,-1.37173 -1.0452,-1.40232 0.3265,-0.32654 0.8325,0.65284 1.5135,1.33392 1.5135,1.51352 0,0.71181 -0.7102,0.25366 -1.84,-1.18698 z M 984.2845,809.00901 c 0.0415,-1.00752 0.24643,-1.21245 0.52252,-0.52252 0.24984,0.62432 0.21911,1.37027 -0.0683,1.65766 -0.28738,0.28738 -0.49179,-0.22343 -0.45424,-1.13514 z m 60.6904,-1.65766 c 0.01,-1.9027 0.1867,-2.57924 0.3935,-1.50343 0.2069,1.07582 0.1991,2.63258 -0.017,3.45946 -0.2165,0.82689 -0.3857,-0.0533 -0.3761,-1.95603 z m -389.23872,0 c 0.0176,-1.42702 0.21145,-1.9061 0.43073,-1.06462 0.21928,0.84149 0.20486,2.00906 -0.032,2.5946 -0.23691,0.58554 -0.41632,-0.10295 -0.39869,-1.52998 z m 79.59961,-0.43243 c 0,-1.66486 0.17798,-2.34594 0.39552,-1.51351 0.21754,0.83243 0.21754,2.19459 0,3.02703 -0.21754,0.83243 -0.39552,0.15135 -0.39552,-1.51352 z m -121.39205,0.21622 c -1.07578,-1.37173 -1.04519,-1.40232 0.32653,-0.32654 0.83244,0.65284 1.51352,1.33392 1.51352,1.51352 0,0.71181 -0.71022,0.25367 -1.84005,-1.18698 z m 370.34076,-1.58559 c 0.0415,-1.00752 0.24643,-1.21245 0.52252,-0.52252 0.24984,0.62432 0.21911,1.37027 -0.0683,1.65766 -0.28738,0.28739 -0.49179,-0.22343 -0.45424,-1.13514 z m -748.74477,-9.44144 c 0.003,-3.8054 0.15519,-5.25458 0.33789,-3.22038 0.1827,2.03419 0.18013,5.14771 -0.006,6.91892 -0.18584,1.77121 -0.33532,0.10687 -0.33218,-3.69854 z M 125.6892,795.24325 c 0.004,-3.32973 0.16016,-4.58592 0.34738,-2.79152 0.18722,1.79439 0.18409,4.51871 -0.007,6.05405 -0.19106,1.53534 -0.34424,0.0672 -0.34041,-3.26253 z M 378.22974,784 c 0.004,-3.32973 0.16016,-4.58591 0.34738,-2.79152 0.18723,1.7944 0.18409,4.51872 -0.007,6.05406 -0.19106,1.53533 -0.34424,0.0672 -0.34041,-3.26254 z m 7.78379,0 c 0.004,-3.32973 0.16016,-4.58591 0.34738,-2.79152 0.18722,1.7944 0.18408,4.51872 -0.007,6.05406 -0.19106,1.53533 -0.34424,0.0672 -0.3404,-3.26254 z m -227.74326,3.56536 c 0,-0.17959 0.68108,-0.86067 1.51351,-1.51351 1.37173,-1.07578 1.40232,-1.04519 0.32654,0.32653 -1.12983,1.44065 -1.84005,1.89879 -1.84005,1.18698 z m 783.56757,-1.83563 c 1.11719,-1.18919 2.22584,-2.16216 2.46368,-2.16216 0.23784,0 -0.48163,0.97297 -1.59881,2.16216 -1.11719,1.18919 -2.22584,2.16216 -2.46368,2.16216 -0.23784,0 0.48163,-0.97297 1.59881,-2.16216 z M 701.40541,695.88968 c 0,-0.17959 0.68108,-0.86067 1.51351,-1.51351 1.37173,-1.07578 1.40232,-1.04519 0.32654,0.32654 -1.12984,1.44064 -1.84005,1.89879 -1.84005,1.18697 z m -32.86487,-36.43022 c 1.11719,-1.18919 2.22584,-2.16216 2.46368,-2.16216 0.23784,0 -0.48163,0.97297 -1.59881,2.16216 -1.11719,1.18919 -2.22584,2.16216 -2.46368,2.16216 -0.23784,0 0.48163,-0.97297 1.59881,-2.16216 z m 40.16181,-58.59459 -2.54018,-2.81081 2.81081,2.54018 c 2.62007,2.36781 3.20834,3.08144 2.54018,3.08144 -0.14884,0 -1.4137,-1.26487 -2.81081,-2.81081 z m -207.51316,-1.51352 c 0.86096,-0.95135 1.75998,-1.72973 1.99782,-1.72973 0.23784,0 -0.27199,0.77838 -1.13295,1.72973 -0.86096,0.95135 -1.75998,1.72973 -1.99782,1.72973 -0.23784,0 0.27199,-0.77838 1.13295,-1.72973 z m 577.72971,0 c 0.861,-0.95135 1.76,-1.72973 1.9978,-1.72973 0.2379,0 -0.2719,0.77838 -1.1329,1.72973 -0.861,0.95135 -1.76,1.72973 -1.9978,1.72973 -0.2379,0 0.272,-0.77838 1.1329,-1.72973 z m -372.3243,-9.94594 c 1.11718,-1.18919 2.22584,-2.16216 2.46368,-2.16216 0.23783,0 -0.48163,0.97297 -1.59882,2.16216 -1.11718,1.18919 -2.22584,2.16216 -2.46368,2.16216 -0.23783,0 0.48163,-0.97297 1.59882,-2.16216 z m 568.1059,0.64865 c -1.0758,-1.37173 -1.0452,-1.40232 0.3265,-0.32654 0.8325,0.65284 1.5135,1.33392 1.5135,1.51352 0,0.71181 -0.7102,0.25366 -1.84,-1.18698 z M 462.7027,571.34914 c 0,-0.17959 0.68109,-0.86067 1.51352,-1.51351 1.37172,-1.07578 1.40231,-1.04519 0.32653,0.32653 -1.12983,1.44065 -1.84005,1.8988 -1.84005,1.18698 z m 577.7297,0 c 0,-0.17959 0.6811,-0.86067 1.5136,-1.51351 1.3717,-1.07578 1.4023,-1.04519 0.3265,0.32653 -1.1298,1.44065 -1.8401,1.8988 -1.8401,1.18698 z m 95.3038,-9.61941 c 0.018,-1.42703 0.2114,-1.9061 0.4307,-1.06462 0.2193,0.84149 0.2049,2.00905 -0.032,2.5946 -0.2369,0.58554 -0.4163,-0.10295 -0.3987,-1.52998 z m 88.1159,-1.8018 c 0.042,-1.00752 0.2464,-1.21245 0.5225,-0.52252 0.2498,0.62432 0.2191,1.37027 -0.068,1.65766 -0.2874,0.28738 -0.4918,-0.22343 -0.4542,-1.13514 z m 28.8503,-21.33333 -2.5402,-2.81081 2.8108,2.54018 c 2.62,2.36781 3.2083,3.08144 2.5402,3.08144 -0.1489,0 -1.4137,-1.26487 -2.8108,-2.81081 z m -27.9172,-14.48649 c 0,-1.18919 0.1963,-1.67568 0.4362,-1.08108 0.24,0.59459 0.24,1.56757 0,2.16216 -0.2399,0.5946 -0.4362,0.10811 -0.4362,-1.08108 z M 500.64644,494.91892 c -1.07578,-1.37172 -1.04519,-1.40231 0.32654,-0.32653 0.83243,0.65284 1.51351,1.33392 1.51351,1.51351 0,0.71181 -0.71022,0.25367 -1.84005,-1.18698 z m 577.72976,0 c -1.0758,-1.37172 -1.0452,-1.40231 0.3265,-0.32653 0.8324,0.65284 1.5135,1.33392 1.5135,1.51351 0,0.71181 -0.7102,0.25367 -1.84,-1.18698 z M 661.45946,475.94974 c 0.62433,-0.24983 1.37027,-0.21911 1.65766,0.0683 0.28739,0.28739 -0.22342,0.4918 -1.13513,0.45424 -1.00752,-0.0415 -1.21246,-0.24643 -0.52253,-0.52252 z"
         id="path3" />
      <path
         style="fill:#38835f"
         d="m 176.95288,837.00589 c -9.90335,-1.26459 -17.73909,-7.00279 -22.0141,-16.12116 -1.99861,-4.26292 -2.29013,-5.98566 -2.29013,-13.53338 0,-7.65621 0.26887,-9.19448 2.34309,-13.4054 2.92589,-5.93992 7.5057,-10.69936 13.17463,-13.69136 3.9724,-2.09659 5.24799,-2.30864 13.88768,-2.30864 8.67382,0 9.94974,0.21421 14.45574,2.42694 21.11825,10.37039 21.23474,43.5588 0.18903,53.8555 -5.47709,2.6797 -12.63122,3.68601 -19.74594,2.7775 z m 12.89238,-12.6729 c 7.9681,-3.61983 12.11285,-12.67478 9.9426,-21.7214 -3.61541,-15.07073 -23.60716,-18.90124 -32.42494,-6.21276 -2.38946,3.43834 -2.60616,4.34906 -2.60616,10.95252 0,6.60347 0.2167,7.51419 2.60616,10.95253 4.88653,7.03155 14.5634,9.62661 22.48234,6.02911 z m 437.13219,-3.17595 -15.08556,-16.89701 -0.23489,16.46458 -0.23489,16.46458 h -5.60294 -5.60295 v -30.27027 c 0,-25.45656 0.19372,-30.27027 1.21818,-30.27027 0.67,0 7.96729,7.84493 16.21621,17.43317 l 14.99804,17.43316 0.23489,-16.5683 0.23489,-16.5683 h 5.60295 5.60295 v 29.83784 c 0,23.9915 -0.22154,29.83784 -1.13066,29.83784 -0.62187,0 -7.91916,-7.60366 -16.21622,-16.89702 z m 383.00165,15.9437 c -13.02688,-1.42662 -23.01887,-11.46205 -24.7461,-24.85369 -1.97914,-15.3448 6.17484,-29.51483 19.2483,-33.44979 2.3458,-0.70606 7.0427,-1.28374 10.4376,-1.28374 12.3019,0 20.8432,4.77304 26.3103,14.7027 3.023,5.49069 3.095,5.8432 3.0912,15.13513 0,8.18714 -0.2814,10.07254 -1.9948,13.52314 -6.0813,12.24681 -17.2992,17.87413 -32.3465,16.22625 z m 12.7236,-12.78942 c 6.4837,-2.99244 10.0695,-9.0319 10.0695,-16.95997 0,-10.96707 -7.3019,-18.5566 -17.8533,-18.5566 -10.5514,0 -17.85326,7.58953 -17.85326,18.5566 0,10.96708 7.30186,18.55661 17.85326,18.55661 2.3784,0 5.8811,-0.71849 7.7838,-1.59664 z m 116.892,-2.7608 c -8.0121,-8.99873 -14.9202,-16.36133 -15.3513,-16.36133 -0.4404,0 -0.7839,7.01167 -0.7839,16 v 16 h -5.1892 -5.1892 v -30.33368 c 0,-26.00569 0.1783,-30.29379 1.25,-30.05406 0.6875,0.1538 7.7415,7.86882 15.6756,17.1445 7.934,9.27567 14.7661,16.99459 15.1824,17.15315 0.4163,0.15856 0.7569,-7.13874 0.7569,-16.21621 v -16.50451 h 5.6216 5.6216 v 29.83784 c 0,27.8675 -0.1,29.83314 -1.5135,29.76674 -0.8325,-0.0391 -8.0689,-7.4337 -16.081,-16.43244 z M 115.02703,807.78379 v -29.40541 h 14.27027 14.27027 V 784 v 5.62162 h -9.1206 -9.1206 l 0.25574,5.83784 0.25573,5.83784 7.56757,0.24989 7.56756,0.24989 v 5.55427 5.55428 l -7.56756,0.24989 -7.56757,0.24989 -0.24062,11.89189 -0.24063,11.89189 h -5.16478 -5.16478 z m 109.83784,-0.0569 v -29.46236 l 14.55346,0.27317 c 13.86726,0.26028 14.70433,0.37511 17.75302,2.43533 4.67231,3.1574 7.80332,9.92653 7.30521,15.79357 -0.53388,6.28825 -2.88684,10.74237 -7.09821,13.43682 -1.94728,1.24587 -3.68619,2.36223 -3.86425,2.4808 -0.17806,0.11856 2.54627,5.36498 6.05405,11.65872 3.50779,6.29373 6.51347,11.77668 6.67929,12.18434 0.16582,0.40765 -2.53049,0.62606 -5.9918,0.48536 l -6.2933,-0.25583 -6.04489,-11.50303 -6.04489,-11.50304 -3.09844,0.25979 -3.09844,0.25979 -0.24132,11.45946 -0.24132,11.45946 h -5.16409 -5.16408 z m 25.39688,-6.05988 c 2.67601,-2.10495 3.12609,-6.99131 0.93245,-10.12317 -1.2105,-1.72824 -2.08307,-1.92217 -8.64865,-1.92217 h -7.30231 v 6.34235 c 0,3.48829 0.25946,6.6018 0.57658,6.91892 0.31712,0.31711 3.18355,0.57657 6.36985,0.57657 4.55133,0 6.2818,-0.38427 8.07208,-1.7925 z m 48.98149,6.11683 v -29.40541 h 5.59722 5.59722 l 0.24062,11.70954 0.24062,11.70954 7.35135,-11.70494 7.35135,-11.70494 6.27027,-0.005 c 3.44865,-0.003 6.27027,0.19931 6.27027,0.44852 0,0.24922 -3.91216,6.30266 -8.6937,13.45209 -4.78154,7.14942 -8.87881,13.48134 -9.10506,14.07092 -0.22624,0.58959 4.24695,7.76858 9.94042,15.95333 l 10.35176,14.88135 h -6.84613 -6.84614 l -8.0222,-11.73124 -8.02219,-11.73124 -0.24062,11.73124 -0.24062,11.73124 h -5.59722 -5.59722 z m 50.16217,0 v -29.40541 h 14.27027 14.27027 V 784 v 5.62162 h -8.64865 -8.64865 v 6.05406 6.05405 h 7.78378 7.78379 v 5.62162 5.62163 h -7.78379 -7.78378 v 6.48648 6.48649 h 9.51351 9.51352 v 5.62162 5.62162 h -15.13514 -15.13513 z m 51.89189,5.62162 v -23.78379 h -7.35135 -7.35135 V 784 778.37838 h 20.32432 20.32433 V 784 v 5.62162 h -7.35136 -7.35135 v 23.78379 23.78378 h -5.62162 -5.62162 z m 44.97297,0 v -23.78379 h -7.35135 -7.35135 V 784 778.37838 h 20.32432 20.32433 V 784 v 5.62162 h -7.35135 -7.35135 v 23.78379 23.78378 h -5.62163 -5.62162 z m 35.45946,-5.62162 v -29.40541 h 14.7027 14.70271 V 784 v 5.62162 h -9.08108 -9.08108 v 6.05406 6.05405 h 7.78378 7.78378 v 5.62162 5.62163 h -7.78378 -7.78378 v 6.48648 6.48649 H 502.48649 512 v 5.62162 5.62162 h -15.13513 -15.13514 z m 42.37838,0 v -29.40541 h 13.56478 c 15.84492,0 19.44116,1.09593 23.44381,7.14433 3.29514,4.97929 3.68862,13.34751 0.88375,18.79464 -1.74544,3.38967 -5.64682,6.9882 -8.66824,7.99534 -0.55169,0.1839 1.8679,5.33676 5.66308,12.06034 3.64448,6.45658 6.62633,11.98155 6.62633,12.2777 0,0.29616 -2.69291,0.53846 -5.98424,0.53846 h -5.98425 l -6.16221,-11.67567 c -6.09572,-11.54971 -6.19445,-11.67568 -9.15088,-11.67568 h -2.98869 v 11.67568 11.67567 h -5.62162 -5.62162 z m 25.2633,-5.5034 c 2.01124,-1.52804 3.44303,-5.56778 2.76454,-7.80003 -1.2432,-4.09009 -2.82514,-4.85874 -9.99972,-4.85874 h -6.78488 v 6.91892 6.91892 l 6.27027,-0.0275 c 3.76797,-0.0165 6.86071,-0.47609 7.74979,-1.15157 z m 25.76373,5.5034 v -29.40541 h 5.62162 5.62162 v 29.40541 29.4054 h -5.62162 -5.62162 z m 102.01129,28.27874 c -8.38958,-2.372 -15.81847,-9.2051 -18.8675,-17.35438 -2.45483,-6.56111 -2.50121,-16.0285 -0.10985,-22.42 5.13582,-13.7267 20.45485,-21.23088 36.3721,-17.81724 l 4.46415,0.95738 -0.36735,5.07847 c -0.20203,2.79315 -0.57012,5.28124 -0.81796,5.52908 -0.24784,0.24784 -2.65603,0.008 -5.35153,-0.53363 -9.57317,-1.92257 -18.54793,1.61292 -22.18329,8.7388 -6.54397,12.82724 1.79297,27.70494 15.52486,27.70494 h 3.48724 v -9.08108 -9.08108 h 5.62162 5.62162 v 12.87906 12.87907 l -3.67567,1.50516 c -4.71859,1.93222 -14.66432,2.4444 -19.71844,1.01545 z m 79.6807,-0.19393 c -8.96724,-2.51277 -15.82613,-8.75334 -19.06267,-17.34422 -1.60854,-4.26961 -1.87254,-6.41049 -1.59111,-12.90276 0.29611,-6.83083 0.6944,-8.45099 3.25325,-13.23363 3.36504,-6.28945 6.36287,-9.09478 12.95853,-12.12642 5.58042,-2.56498 15.05151,-3.44288 20.69109,-1.9179 3.74527,1.01275 3.77423,1.05018 3.25276,4.20395 -0.28939,1.75016 -0.53044,4.42712 -0.53567,5.94879 l -0.01,2.76668 -3.24145,-1.35436 c -4.80364,-2.00709 -13.1532,-1.14789 -17.39216,1.78971 -9.77735,6.77572 -10.15622,23.09149 -0.70362,30.30134 4.76932,3.63773 13.81457,4.41712 20.62535,1.77719 1.19685,-0.46392 1.54477,0.16766 1.99101,3.61423 0.2974,2.297 0.67253,4.8342 0.83362,5.63821 0.64427,3.21571 -13.11095,5.06928 -21.06941,2.83919 z m 31.06477,-28.08481 v -29.40541 h 5.62162 5.62162 v 29.40541 29.4054 h -5.62162 -5.62162 z m 35.45946,5.62162 V 789.62162 H 816 808.64865 V 784 778.37838 h 20.32433 20.32432 V 784 v 5.62162 h -7.35135 -7.35135 v 23.78379 23.78378 h -5.62162 -5.62162 z m 50.16216,10.24682 v -13.53696 l -8.77945,-13.9225 c -4.82869,-7.65737 -9.34913,-14.79817 -10.04541,-15.86844 l -1.26597,-1.94595 6.80217,0.003 6.80217,0.003 5.87394,9.97213 c 3.23067,5.48467 6.21159,9.76345 6.62428,9.5084 0.41268,-0.25505 3.21806,-4.74058 6.23417,-9.96784 l 5.48383,-9.5041 6.75374,-0.007 c 5.15145,-0.005 6.60981,0.24964 6.14705,1.07424 -0.33369,0.5946 -4.83233,7.74 -9.99699,15.87868 l -9.39029,14.79761 v 13.52672 13.52672 h -5.62162 -5.62162 z m 83.3341,12.68653 c -8.80021,-1.86097 -16.71155,-8.1687 -20.44412,-16.30012 -2.69925,-5.88034 -2.71665,-19.60503 -0.0322,-25.4157 2.69201,-5.82709 9.01786,-12.23686 14.36278,-14.55332 5.4203,-2.34914 15.0721,-3.16563 20.39773,-1.72554 l 3.78043,1.02225 -0.604,5.3386 c -0.3322,2.93624 -0.74866,5.48327 -0.92546,5.66008 -0.17681,0.17681 -1.56699,-0.11272 -3.08928,-0.64339 -6.14789,-2.14317 -14.30907,-0.57272 -18.79627,3.61696 -6.38768,5.96415 -7.4272,17.24308 -2.30289,24.98645 4.4037,6.65444 14.73479,9.00452 23.94213,5.44627 1.17001,-0.45216 1.56894,0.0954 2.00424,2.75101 0.29891,1.82354 0.73279,4.34042 0.96418,5.59307 0.35785,1.93722 0.0134,2.41954 -2.30537,3.22786 -3.90508,1.36132 -12.76237,1.88147 -16.95187,0.99552 z m 113.47268,-0.44005 c -4.5862,-1.63374 -7.3279,-3.77924 -10.4284,-8.16055 l -2.5946,-3.66641 -0.2686,-22.84668 -0.2685,-22.84669 h 5.6739 5.674 l 0.019,20.97297 c 0.017,18.56501 0.1908,21.18478 1.5136,22.8177 4.4005,5.43261 13.0977,5.04441 16.6257,-0.74208 1.595,-2.61594 1.7272,-4.36888 1.7302,-22.94048 v -20.10811 h 5.6991 5.699 l -0.3054,21.40541 c -0.2798,19.60408 -0.4591,21.73292 -2.1306,25.29729 -4.6694,9.95663 -16.0673,14.58463 -26.6418,10.81763 z m 119.9328,-0.0504 c -6.1576,-1.65779 -9.1982,-3.33396 -13.0685,-7.20422 -13.9513,-13.9513 -9.9644,-39.92338 7.3887,-48.1327 5.794,-2.74101 14.6554,-3.66665 20.8576,-2.17875 l 4.3757,1.04971 -0.4725,4.90342 c -0.2598,2.69688 -0.7395,5.20042 -1.066,5.56342 -0.3264,0.363 -1.8545,0.22042 -3.3957,-0.31684 -1.5412,-0.53726 -5.1186,-0.80928 -7.9499,-0.60449 -11.6487,0.8426 -18.8065,11.82923 -15.5604,23.8842 1.2571,4.66868 6.1088,10.12351 10.2072,11.47609 3.8158,1.25931 11.9102,1.23572 15.2775,-0.0445 1.3608,-0.51736 2.6139,-0.80092 2.7847,-0.63012 0.1708,0.17079 0.4087,2.7974 0.5287,5.83689 l 0.2182,5.52635 -4.3243,1.0232 c -5.7865,1.36916 -10.3136,1.32572 -15.801,-0.15163 z m 30.9361,-28.06452 v -29.40541 h 5.6216 5.6216 v 29.40541 29.4054 h -5.6216 -5.6216 z m 25.0811,0 v -29.40541 h 5.6216 5.6216 v 23.78379 23.78378 h 9.5135 9.5135 v 5.62162 5.62162 h -15.1351 -15.1351 z m -47.5676,-94.9296 c -3.3445,-1.04288 -3.4595,-2.19002 -3.4595,-34.533 v -31.40227 l -21.8378,-0.0171 c -12.0108,-0.009 -24.5191,-0.40471 -27.7963,-0.87843 -11.2512,-1.62637 -21.424,-9.23039 -26.3182,-19.6726 -2.0528,-4.37973 -2.3179,-5.98399 -2.3179,-14.02643 0,-8.28264 0.2226,-9.53734 2.5325,-14.27027 3.0481,-6.24563 10.7066,-14.04891 16.0821,-16.38618 2.1295,-0.9259 4.0018,-1.76937 4.1606,-1.87436 0.1589,-0.10499 -0.5622,-2.52484 -1.6023,-5.37745 -2.6815,-7.35435 -2.2257,-18.38472 1.0504,-25.41548 4.2682,-9.1599 12.9666,-16.47009 22.429,-18.84934 l 4.0036,-1.0067 0.3776,-7.19241 c 0.3082,-5.87288 0.8865,-8.22648 3.1523,-12.82887 4.7813,-9.71217 14.2819,-16.87609 25.0111,-18.85949 14.4244,-2.66648 30.1318,5.42908 36.1842,18.64923 2.4198,5.28564 4.1043,13.41337 3.6272,17.50088 -0.3382,2.89651 0.4737,3.74827 3.5729,3.74827 3.2397,0 12.0839,5.3576 16.4298,9.95279 5.8578,6.19375 8.7231,12.51271 9.3148,20.54232 0.429,5.82187 0.033,8.35702 -2.7351,17.50489 -0.4325,1.42953 0.3456,2.17999 4.4835,4.32402 6.5498,3.39374 11.9391,9.03658 15.2816,16.00031 2.4664,5.13866 2.6982,6.36464 2.6982,14.27027 0,7.57343 -0.2881,9.26346 -2.3179,13.594 -2.8722,6.12814 -8.8456,12.62485 -14.3746,15.63416 -8.0495,4.38107 -12.3053,4.934 -37.9757,4.934 h -23.602 v 31.40227 c 0,32.3456 -0.1068,33.41101 -3.4595,34.51164 -0.7135,0.23424 -1.8811,0.24385 -2.5946,0.0214 z m -3.4595,-81.89315 v -6.44436 l -14.291,-9.33942 c -14.5739,-9.52423 -16.2408,-11.2402 -14.3504,-14.77245 1.9318,-3.60969 4.0488,-2.94541 16.16,5.07095 6.4095,4.24239 11.8398,7.71343 12.0675,7.71343 0.2277,0 0.399,-5.74054 0.3808,-12.75676 l -0.033,-12.75675 -9.4374,-5.88608 c -9.5762,-5.9726 -11.2088,-7.82957 -9.5722,-10.88755 1.8131,-3.38785 4.1161,-3.08827 11.5766,1.50591 l 7.0668,4.35169 0.4324,-12.99249 c 0.3853,-11.57567 0.6156,-13.12609 2.1113,-14.21766 2.1113,-1.54083 3.1799,-1.54076 5.291,3.4e-4 1.3252,0.96734 1.7699,2.60965 2.1113,7.79574 l 0.4324,6.57023 5.6216,-3.77698 c 6.7633,-4.54398 8.8751,-5.2981 11.2611,-4.02117 1.3681,0.73217 1.7475,1.64584 1.5462,3.72359 -0.2359,2.43464 -1.3429,3.48375 -9.564,9.06343 l -9.2973,6.31009 v 13.03262 13.03263 l 2.3783,-1.54755 c 1.3081,-0.85115 6.7888,-4.47998 12.1792,-8.06406 9.5361,-6.34043 9.8632,-6.48151 12.1081,-5.22145 1.689,0.94797 2.3073,1.98152 2.3073,3.85648 0,2.3484 -1.2047,3.37281 -14.4865,12.31768 l -14.4864,9.75625 v 12.51402 12.51402 h 24.6162 c 22.4591,0 25.0193,-0.15085 29.2172,-1.72146 13.1643,-4.92539 19.566,-21.22319 13.3371,-33.95447 -3.878,-7.92635 -9.1187,-11.67689 -20.2429,-14.48682 -5.1844,-1.30956 -5.5842,-3.63857 -1.6542,-9.63633 3.8282,-5.84232 5.2288,-11.09759 4.5347,-17.01452 -1.4374,-12.25332 -10.4989,-20.78959 -23.6314,-22.2617 -7.1366,-0.79998 -7.7319,-1.61323 -6.5044,-8.88664 2.8547,-16.91541 -7.9871,-30.38516 -24.4755,-30.40799 -10.2268,-0.0142 -18.2805,5.17506 -22.6737,14.60911 -2.028,4.35525 -2.1387,5.27134 -1.6335,13.52735 0.3999,6.53588 0.2623,9.07902 -0.5253,9.70815 -0.5869,0.46883 -3.4022,1.12816 -6.2562,1.46517 -9.7142,1.14706 -16.8358,5.82198 -21.0121,13.7931 -1.916,3.65701 -2.3011,5.50018 -2.2747,10.88867 0.034,6.83602 1.7049,11.72035 5.6964,16.64691 1.5551,1.91942 1.7685,2.81381 1.1093,4.64908 -0.6811,1.89612 -1.7659,2.51056 -6.5507,3.71032 -10.1883,2.55461 -16.7093,8.60443 -19.4549,18.04912 -3.2342,11.12504 2.9155,24.02568 13.9461,29.25572 4.2418,2.01121 4.8071,2.05049 29.6217,2.05878 l 25.2972,0.008 z M 121.10445,712 c 0.0129,-0.35675 22.31434,-55.52432 49.55887,-122.59459 46.79725,-115.20493 49.65842,-121.96049 51.759,-122.20904 2.05138,-0.24273 2.4603,0.32629 5.28298,7.35135 2.37738,5.91682 94.46182,232.42465 96.35799,237.01985 0.35115,0.85099 -5.17162,1.08108 -25.9492,1.08108 h -26.3953 l -2.20717,-5.83784 c -1.21394,-3.21081 -3.3104,-8.75675 -4.65881,-12.32432 L 262.40117,688 l -39.87312,-0.2248 -39.87312,-0.22479 -1.34609,3.95056 c -0.74035,2.1728 -2.76742,7.81991 -4.50461,12.54912 l -3.15852,8.59856 H 147.3634 c -14.45528,0 -26.2718,-0.29189 -26.25895,-0.64865 z m 117.64988,-85.62162 c -3.26786,-9.39459 -8.11902,-23.28489 -10.78037,-30.86731 -2.66135,-7.58243 -4.85066,-14.00405 -4.86512,-14.27027 -0.0821,-1.51045 -2.57218,4.93703 -11.51234,29.80819 -5.46721,15.20954 -10.35203,28.72399 -10.85514,30.03209 l -0.91476,2.37838 h 22.43464 22.43464 z m 120.16459,-32.28673 v -118.557 l 51.67568,0.37533 c 43.03443,0.31256 52.63639,0.60281 57.42085,1.73568 27.81716,6.58662 46.38597,26.15723 52.24266,55.0612 1.12702,5.56207 1.36418,9.83385 1.00755,18.14857 -0.5716,13.32667 -2.09611,19.48416 -7.71581,31.16414 -3.84157,7.98432 -5.27982,9.96798 -12.24856,16.89337 -7.54539,7.49847 -14.11779,11.70373 -24.53263,15.69688 -1.84909,0.70897 -0.73803,2.86384 25.2973,49.06354 14.97724,26.5771 27.23134,48.46899 27.23134,48.64865 0,0.17965 -11.83165,0.32664 -26.29255,0.32664 h -26.29254 l -23.6534,-44.94675 -23.6534,-44.94676 -11.89189,-0.0262 -11.8919,-0.0262 v 44.97297 44.97297 h -23.35135 -23.35135 z m 100.11185,-20.17708 c 5.01068,-2.77629 8.01043,-6.21319 10.8363,-12.41547 2.70367,-5.93408 2.65403,-17.92475 -0.0993,-23.98558 -2.56161,-5.6388 -6.46488,-9.66878 -11.82181,-12.20557 -4.22337,-2 -4.88461,-2.048 -28.32433,-2.05626 l -24,-0.008 v 26.87099 26.871 l 24.43244,-0.2764 24.43243,-0.27641 z m 103.13139,20.18844 V 475.55737 l 52.97298,0.32404 c 51.31739,0.31391 53.18921,0.38331 59.89189,2.22067 31.62482,8.66906 49.70136,35.8816 47.73094,71.85446 -0.90018,16.43424 -5.58582,28.27169 -15.16861,38.32084 l -5.78246,6.06388 7.01058,7.04559 c 12.42576,12.48781 17.4018,25.84584 16.60363,44.57199 -0.34736,8.14934 -0.92352,11.50768 -3.0581,17.82495 -6.40798,18.96441 -18.33321,33.01995 -35.22787,41.52095 -14.68708,7.39019 -14.22567,7.34391 -73.21943,7.34391 h -51.75355 z m 100.86031,69.33767 c 7.69628,-3.64098 12.27512,-10.33305 13.07031,-19.10255 0.88024,-9.70746 -3.47028,-18.29784 -11.72402,-23.1498 l -4.04443,-2.37752 -25.2973,-0.26425 -25.2973,-0.26426 v 23.83182 23.83183 l 24,-6.8e-4 24,-6.9e-4 z m -1.83328,-94.24341 c 4.06654,-1.85204 9.30703,-7.38183 11.36163,-11.98881 2.16953,-4.86473 2.0454,-15.9872 -0.23429,-20.99224 -2.51678,-5.52556 -5.7827,-9.06934 -10.49887,-11.39208 -3.93128,-1.93618 -5.0076,-2.02434 -28.08793,-2.30081 l -24,-0.28749 v 24.28749 24.28748 l 24,-0.019 c 21.34915,-0.0169 24.38211,-0.19302 27.45946,-1.59455 z m 107.67568,24.96489 V 475.67568 h 59.24324 59.24325 v 23.78378 23.78379 h -35.8919 -35.89189 v 23.78378 23.78378 h 31.13514 31.13513 v 23.78379 23.78378 h -31.13513 -31.13514 v 23.78378 23.78379 h 37.62162 37.62163 v 23.35135 23.35135 h -60.97298 -60.97297 z m 167.78378,-0.0705 v -118.557 l 51.67568,0.37533 c 56.02817,0.40694 56.49267,0.44359 69.09657,5.45321 19.3381,7.68625 33.0155,23.63233 39.4167,45.95486 1.6216,5.65513 1.934,8.88707 1.9468,20.14141 0.018,16.06352 -1.1195,21.30532 -7.5016,34.56011 -3.8429,7.98112 -5.2858,9.97076 -12.2518,16.89337 -7.546,7.49908 -14.1703,11.73625 -24.54,15.69688 -1.8587,0.70989 -0.779,2.80488 25.2972,49.08857 14.9814,26.59087 27.2388,48.48838 27.2388,48.66115 0,0.17276 -11.8879,0.21119 -26.4176,0.0854 l -26.4176,-0.22871 -23.5283,-44.72884 -23.5284,-44.72885 -11.89185,-0.0279 -11.89189,-0.0279 v 44.97297 44.97297 H 960 936.64865 Z m 100.11185,-20.17708 c 12.2898,-6.80946 16.7624,-24.61923 9.6844,-38.56322 -2.0898,-4.11685 -6.518,-8.1928 -11.2017,-10.31045 -3.6098,-1.63217 -5.6308,-1.76104 -27.8918,-1.77866 l -24.00004,-0.019 v 26.87099 26.871 l 24.43244,-0.2764 24.4324,-0.27641 z"
         id="path2" />
    </g>
  </g>
</svg>
